<svg width="81" height="80" viewBox="0 0 81 80" fill="none" xmlns="http://www.w3.org/2000/svg">
<path d="M55.3533 72.3133L57.5067 71.04L55.3567 72.3133H55.3533ZM61.13 73.5833L62.0333 72.06L57.73 69.5133L56.8267 71.04L61.1267 73.5867L61.13 73.5833ZM52.3 72.06L53.2033 73.5867L57.5067 71.04L56.6033 69.5133L52.3033 72.06H52.3ZM56.8267 71.04C56.8618 70.9801 56.9113 70.9299 56.9706 70.8939C57.03 70.8578 57.0973 70.837 57.1667 70.8333C57.2567 70.8333 57.4167 70.8867 57.5067 71.04L53.2067 73.5867C54.9767 76.5833 59.3567 76.58 61.13 73.5833L56.8267 71.04ZM54.6667 42.5H59.6667V37.5H54.6667V42.5ZM71.3333 54.1667V55.8333H76.3333V54.1667H71.3333ZM43 55.8333V54.1667H38V55.8333H43ZM38 55.8333C38 57.74 38 59.2967 38.0833 60.5633C38.1733 61.8533 38.36 63.0233 38.8233 64.1467L43.4433 62.2333C43.2767 61.8233 43.1433 61.2567 43.0733 60.2233C43.0041 58.7611 42.9797 57.2971 43 55.8333H38ZM50.1933 65.82C48.1 65.7867 47.22 65.6467 46.6 65.3867L44.6867 70.01C46.27 70.6633 48.0133 70.7833 50.1067 70.82L50.1933 65.82ZM38.8267 64.1467C39.9254 66.8007 42.0332 68.9098 44.6867 70.01L46.6 65.39C45.1709 64.798 44.0354 63.6625 43.4433 62.2333L38.8233 64.1467H38.8267ZM71.3333 55.8333C71.3333 57.81 71.3333 59.1667 71.26 60.2233C71.19 61.2567 71.06 61.8233 70.89 62.2333L75.51 64.1467C75.9733 63.0233 76.16 61.8533 76.2467 60.5633C76.3333 59.2967 76.3333 57.74 76.3333 55.8333H71.3333ZM64.2267 70.82C66.32 70.7833 68.06 70.6633 69.6467 70.01L67.7333 65.39C67.1133 65.6467 66.2333 65.7833 64.14 65.82L64.2267 70.82ZM70.89 62.2333C70.298 63.6625 69.1625 64.798 67.7333 65.39L69.6467 70.01C70.9614 69.4652 72.156 68.6667 73.162 67.66C74.1681 66.6534 74.9659 65.4617 75.51 64.1467L70.89 62.2333ZM59.6667 42.5C62.4433 42.5 64.35 42.5 65.82 42.6433C67.25 42.7767 68.0033 43.0267 68.5467 43.36L71.16 39.0933C69.7 38.2 68.09 37.8367 66.2933 37.6633C64.53 37.4967 62.3467 37.5 59.6667 37.5V42.5ZM76.3333 54.1667C76.3333 51.4867 76.3333 49.3 76.1667 47.5433C76 45.7433 75.6367 44.1333 74.74 42.6733L70.4733 45.2867C70.8067 45.83 71.0533 46.5867 71.19 48.0167C71.33 49.4833 71.3333 51.39 71.3333 54.1667H76.3333ZM68.5467 43.36C69.3333 43.84 69.9933 44.5 70.4733 45.2867L74.74 42.6733C73.8458 41.2152 72.619 39.9895 71.16 39.0967L68.5467 43.36ZM54.6667 37.5C51.9867 37.5 49.8 37.5 48.0433 37.6667C46.2433 37.8333 44.6333 38.2 43.1733 39.0967L45.7867 43.36C46.33 43.0267 47.0867 42.78 48.5167 42.6433C49.9833 42.5033 51.89 42.5 54.6667 42.5V37.5ZM43 54.1667C43 51.39 43 49.4833 43.1433 48.0167C43.2767 46.5833 43.5267 45.83 43.86 45.2833L39.5933 42.6733C38.7 44.1333 38.3367 45.7433 38.1633 47.54C37.9967 49.3033 38 51.4867 38 54.1667H43ZM43.1733 39.0967C41.7156 39.99 40.49 41.2156 39.5967 42.6733L43.86 45.2867C44.34 44.5 45 43.84 45.7867 43.36L43.1733 39.0933V39.0967ZM56.6033 69.5133C56.2767 68.9633 55.9467 68.3967 55.6133 67.94C55.2123 67.3658 54.6943 66.883 54.0933 66.5233L51.58 70.8433C51.4567 70.7733 51.4467 70.71 51.5733 70.8867C51.7333 71.1033 51.9267 71.4267 52.3 72.06L56.6033 69.5133ZM50.1033 70.82C50.86 70.8333 51.2567 70.84 51.5367 70.8733C51.7733 70.9 51.7133 70.92 51.58 70.8433L54.0933 66.5233C53.4771 66.1769 52.7942 65.9656 52.09 65.9033C51.5233 65.84 50.8567 65.83 50.19 65.82L50.1067 70.82H50.1033ZM62.0333 72.06C62.4067 71.4267 62.6 71.1033 62.76 70.8867C62.89 70.71 62.8767 70.7733 62.7533 70.8433L60.24 66.5233C59.5533 66.9233 59.0833 67.4433 58.72 67.94C58.3867 68.3967 58.0533 68.96 57.73 69.5133L62.0333 72.06ZM64.14 65.82C63.48 65.83 62.81 65.84 62.2433 65.9033C61.63 65.97 60.9333 66.1167 60.24 66.5233L62.7533 70.8433C62.62 70.92 62.56 70.9 62.7933 70.8733C63.0767 70.84 63.4733 70.8333 64.2267 70.82L64.14 65.82Z" fill="#B6FFFA"/>
<path opacity="0.5" d="M33.8332 10L17.1665 70M63.8332 10L57.8132 31.6667M73.8332 30H13.8332M30.4998 53.3333H7.1665" stroke="#B6FFFA" stroke-width="4" stroke-linecap="round" stroke-linejoin="round"/>
</svg>
