<svg width="80" height="80" viewBox="0 0 80 80" fill="none" xmlns="http://www.w3.org/2000/svg">
<path d="M73.3332 63.3333H43.3332C30.7632 63.3333 24.4765 63.3333 20.5732 59.4266C16.6665 55.5233 16.6665 49.2366 16.6665 36.6666V6.66663" stroke="#B6FFFA" stroke-width="4" stroke-linecap="round"/>
<path opacity="0.5" d="M6.6665 16.6666H36.6665C49.2365 16.6666 55.5232 16.6666 59.4265 20.5733C63.3332 24.4766 63.3332 30.7633 63.3332 43.3333V73.3333" stroke="#B6FFFA" stroke-width="4" stroke-linecap="round"/>
<path d="M28.333 38.3333C28.333 33.6199 28.333 31.2633 29.7997 29.7999C31.263 28.3333 33.6197 28.3333 38.333 28.3333H41.6663C46.3797 28.3333 48.7363 28.3333 50.1997 29.7999C51.6663 31.2633 51.6663 33.6199 51.6663 38.3333V41.6666C51.6663 46.3799 51.6663 48.7366 50.1997 50.1999C48.7363 51.6666 46.3797 51.6666 41.6663 51.6666H38.333C33.6197 51.6666 31.263 51.6666 29.7997 50.1999C28.333 48.7366 28.333 46.3799 28.333 41.6666V38.3333Z" stroke="#B6FFFA" stroke-width="4"/>
</svg>
