<svg width="80" height="80" viewBox="0 0 80 80" fill="none" xmlns="http://www.w3.org/2000/svg">
<path d="M20.0298 26.6666C20.1498 18.4 20.7631 13.7166 23.9065 10.5733C27.8098 6.66663 34.0965 6.66663 46.6665 6.66663C59.2365 6.66663 65.5231 6.66663 69.4264 10.5733C73.3331 14.4766 73.3331 20.7633 73.3331 33.3333V46.6666C73.3331 59.2366 73.3331 65.5233 69.4264 69.4266C65.5231 73.3333 59.2365 73.3333 46.6665 73.3333H39.9998" stroke="#B6FFFA" stroke-width="4" stroke-linecap="round"/>
<path opacity="0.5" d="M6.6665 48.3333C6.6665 43.65 6.6665 41.31 7.78984 39.63C8.27636 38.9017 8.9016 38.2765 9.62984 37.79C11.3098 36.6666 13.6532 36.6666 18.3332 36.6666C23.0132 36.6666 25.3565 36.6666 27.0365 37.79C27.7647 38.2765 28.39 38.9017 28.8765 39.63C29.9998 41.31 29.9998 43.6533 29.9998 48.3333V61.6666C29.9998 66.3466 29.9998 68.69 28.8765 70.37C28.39 71.0982 27.7647 71.7234 27.0365 72.21C25.3565 73.3333 23.0132 73.3333 18.3332 73.3333C13.6532 73.3333 11.3098 73.3333 9.62984 72.21C8.9016 71.7234 8.27636 71.0982 7.78984 70.37C6.6665 68.69 6.6665 66.3466 6.6665 61.6666V48.3333Z" stroke="#B6FFFA" stroke-width="4"/>
<path opacity="0.5" d="M56.6667 63.3333H40" stroke="#B6FFFA" stroke-width="4" stroke-linecap="round"/>
</svg>
