<svg width="81" height="80" viewBox="0 0 81 80" fill="none" xmlns="http://www.w3.org/2000/svg">
<path opacity="0.5" d="M43.8332 72.5C44.4962 72.5 45.1321 72.2366 45.6009 71.7678C46.0698 71.2989 46.3332 70.6631 46.3332 70C46.3332 69.337 46.0698 68.7011 45.6009 68.2322C45.1321 67.7634 44.4962 67.5 43.8332 67.5V72.5ZM71.3332 43.3333C71.3332 43.9964 71.5966 44.6323 72.0654 45.1011C72.5342 45.5699 73.1701 45.8333 73.8332 45.8333C74.4962 45.8333 75.1321 45.5699 75.6009 45.1011C76.0698 44.6323 76.3332 43.9964 76.3332 43.3333H71.3332ZM33.8332 12.5H47.1665V7.5H33.8332V12.5ZM9.66651 43.3333V40H4.66651V43.3333H9.66651ZM9.66651 40V36.6667H4.66651V40H9.66651ZM43.8332 67.5H33.8332V72.5H43.8332V67.5ZM71.3332 36.6667V40H76.3332V36.6667H71.3332ZM4.66651 43.3333C4.66651 49.5467 4.65984 54.46 5.17651 58.2967C5.70317 62.2033 6.80984 65.3667 9.30317 67.8633L12.8365 64.33C11.4298 62.9167 10.5832 60.9833 10.1332 57.63C9.67318 54.2067 9.66651 49.69 9.66651 43.3333H4.66651ZM33.8332 67.5C27.4765 67.5 22.9632 67.4933 19.5332 67.0333C16.1832 66.5833 14.2498 65.7367 12.8398 64.3267L9.30651 67.86C11.7998 70.36 14.9632 71.4633 18.8698 71.99C22.7032 72.5067 27.6198 72.5 33.8332 72.5V67.5ZM47.1665 12.5C53.5232 12.5 58.0398 12.5067 61.4665 12.9667C64.8165 13.4167 66.7498 14.2633 68.1598 15.6733L71.6932 12.14C69.1998 9.64 66.0365 8.53667 62.1298 8.01C58.2965 7.49334 53.3798 7.5 47.1665 7.5V12.5ZM76.3332 36.6667C76.3332 30.4533 76.3398 25.54 75.8232 21.7033C75.2965 17.7967 74.1898 14.6333 71.6965 12.1367L68.1632 15.67C69.5698 17.0833 70.4165 19.0167 70.8665 22.37C71.3265 25.7967 71.3332 30.31 71.3332 36.6667H76.3332ZM33.8332 7.5C27.6198 7.5 22.7065 7.49334 18.8698 8.01C14.9632 8.53667 11.7998 9.64334 9.30317 12.1367L12.8365 15.67C14.2498 14.2633 16.1832 13.4167 19.5365 12.9667C22.9632 12.5067 27.4765 12.5 33.8332 12.5V7.5ZM9.66651 36.6667C9.66651 30.31 9.67318 25.7967 10.1332 22.3667C10.5832 19.0167 11.4298 17.0833 12.8398 15.6733L9.30651 12.14C6.80651 14.6333 5.70317 17.7967 5.17651 21.7033C4.65984 25.5367 4.66651 30.4533 4.66651 36.6667H9.66651ZM7.16651 42.5H73.8332V37.5H7.16651V42.5ZM71.3332 40V43.3333H76.3332V40H71.3332Z" fill="#B6FFFA"/>
<path d="M45.5 25H60.5M20.5 58.3333V51.6666M20.5 28.3333V21.6666M30.5 58.3333V51.6666M30.5 28.3333V21.6666M64.9433 56.2833C66.3622 55.7517 67.9246 55.747 69.3467 56.27C71.9567 57.2266 73.8333 59.85 73.8333 62.94C73.8333 66.84 70.85 70 67.1667 70H55.5C52.74 70 50.5 67.63 50.5 64.7066C50.5 61.7833 52.74 59.41 55.5 59.41C55.8259 59.4101 56.1509 59.4436 56.47 59.51M56.47 59.51C56.1954 58.7224 56.0556 57.8941 56.0567 57.06C56.0567 53.16 59.04 50 62.7233 50C66.1533 50 68.9767 52.7433 69.3467 56.2666M56.47 59.51C57.1267 59.6466 57.7367 59.92 58.2767 60.3033" stroke="#B6FFFA" stroke-width="4" stroke-linecap="round"/>
</svg>
