<svg width="1440" height="537" viewBox="0 0 1440 537" fill="none" xmlns="http://www.w3.org/2000/svg">
<rect width="1440" height="537" fill="#D5D5D5"/>
<g clip-path="url(#clip0_958_24)">
<rect width="1440" height="3020" fill="#0A0909"/>
<g opacity="0.05" clip-path="url(#clip1_958_24)">
<rect width="36.6721" height="621.149" transform="matrix(0.948222 0.317608 -0.209589 0.97779 17.0322 -41)" fill="#B6FFFA"/>
<rect width="36.6721" height="621.149" transform="matrix(0.948222 0.317608 -0.209589 0.97779 83.0322 -41)" fill="#B6FFFA"/>
<rect width="36.6721" height="621.149" transform="matrix(0.948222 0.317608 -0.209589 0.97779 147.992 -41)" fill="#B6FFFA"/>
<rect width="36.6721" height="621.149" transform="matrix(0.948222 0.317608 -0.209589 0.97779 212.951 -41)" fill="#B6FFFA"/>
<rect width="36.6721" height="621.149" transform="matrix(0.948222 0.317608 -0.209589 0.97779 277.91 -41)" fill="#B6FFFA"/>
<rect width="36.6721" height="621.149" transform="matrix(0.948222 0.317608 -0.209589 0.97779 343.91 -41)" fill="#B6FFFA"/>
<rect width="36.6721" height="621.149" transform="matrix(0.948222 0.317608 -0.209589 0.97779 408.869 -41)" fill="#B6FFFA"/>
<rect width="36.6721" height="621.149" transform="matrix(0.948222 0.317608 -0.209589 0.97779 473.829 -41)" fill="#B6FFFA"/>
<rect width="36.6721" height="621.149" transform="matrix(0.948222 0.317608 -0.209589 0.97779 538.788 -41)" fill="#B6FFFA"/>
<rect width="36.6721" height="621.149" transform="matrix(0.948222 0.317608 -0.209589 0.97779 604.788 -41)" fill="#B6FFFA"/>
<rect width="36.6721" height="621.149" transform="matrix(0.948222 0.317608 -0.209589 0.97779 669.747 -41)" fill="#B6FFFA"/>
<rect width="36.6721" height="621.149" transform="matrix(0.948222 0.317608 -0.209589 0.97779 734.707 -41)" fill="#B6FFFA"/>
<rect width="36.6721" height="621.149" transform="matrix(0.948222 0.317608 -0.209589 0.97779 799.666 -41)" fill="#B6FFFA"/>
<rect width="36.6721" height="621.149" transform="matrix(0.948222 0.317608 -0.209589 0.97779 865.666 -41)" fill="#B6FFFA"/>
<rect width="36.6721" height="621.149" transform="matrix(0.948222 0.317608 -0.209589 0.97779 930.625 -41)" fill="#B6FFFA"/>
<rect width="36.6721" height="621.149" transform="matrix(0.948222 0.317608 -0.209589 0.97779 995.584 -41)" fill="#B6FFFA"/>
<rect width="36.6721" height="621.149" transform="matrix(0.948222 0.317608 -0.209589 0.97779 1060.54 -41)" fill="#B6FFFA"/>
<rect width="36.6721" height="621.149" transform="matrix(0.948222 0.317608 -0.209589 0.97779 1126.54 -41)" fill="#B6FFFA"/>
<rect width="36.6721" height="621.149" transform="matrix(0.948222 0.317608 -0.209589 0.97779 1191.5 -41)" fill="#B6FFFA"/>
<rect width="36.6721" height="621.149" transform="matrix(0.948222 0.317608 -0.209589 0.97779 1256.46 -41)" fill="#B6FFFA"/>
<rect width="36.6721" height="621.149" transform="matrix(0.948222 0.317608 -0.209589 0.97779 1321.42 -41)" fill="#B6FFFA"/>
<rect width="36.6721" height="621.149" transform="matrix(0.948222 0.317608 -0.209589 0.97779 1387.42 -41)" fill="#B6FFFA"/>
<rect width="36.6721" height="621.149" transform="matrix(0.948222 0.317608 -0.209589 0.97779 1452.38 -41)" fill="#B6FFFA"/>
<rect width="36.6721" height="621.149" transform="matrix(0.948222 0.317608 -0.209589 0.97779 1517.34 -41)" fill="#B6FFFA"/>
</g>
</g>
<defs>
<clipPath id="clip0_958_24">
<rect width="1440" height="3020" fill="white"/>
</clipPath>
<clipPath id="clip1_958_24">
<rect width="1926.14" height="537" fill="white" transform="translate(-243.072)"/>
</clipPath>
</defs>
</svg>
