<svg width="80" height="60" viewBox="0 0 80 60" fill="none" xmlns="http://www.w3.org/2000/svg">
<path fill-rule="evenodd" clip-rule="evenodd" d="M79.5651 15.1102C78.7557 13.8932 77.0848 13.5464 75.8415 14.3415L67.6783 19.5348L55.4709 12.6475C55.062 12.4165 54.5981 12.2949 54.1258 12.2949C53.6535 12.2949 53.1896 12.4165 52.7807 12.6475L40.4893 19.5828L29.5434 13.4063V2.86685C29.5434 2.16948 29.2599 1.50068 28.7553 1.00757C28.2508 0.514454 27.5664 0.237427 26.8528 0.237427C26.1392 0.237427 25.4549 0.514454 24.9503 1.00757C24.4457 1.50068 24.1622 2.16948 24.1622 2.86685V13.4061L13.3478 19.508L4.22284 13.3289C3.00348 12.5033 1.32469 12.8014 0.478252 13.9942C0.0721971 14.5679 -0.0842066 15.2758 0.0433962 15.9622C0.170999 16.6486 0.572173 17.2574 1.1588 17.6549L10.5261 23.998V38.0142C10.5259 38.4759 10.6501 38.9295 10.8863 39.3294C11.1224 39.7293 11.4621 40.0614 11.8712 40.2924L24.162 47.2291V57.1105C24.162 57.8079 24.4455 58.4767 24.9501 58.9698C25.4547 59.4629 26.139 59.7399 26.8526 59.7399C27.5662 59.7399 28.2506 59.4629 28.7551 58.9698C29.2597 58.4767 29.5432 57.8079 29.5432 57.1105V47.2291L40.4891 41.0513L51.4356 47.2291V57.1105C51.4325 57.4577 51.4999 57.802 51.6337 58.1237C51.7675 58.4453 51.9652 58.7378 52.2154 58.9844C52.4655 59.231 52.7631 59.4267 53.0911 59.5603C53.419 59.6938 53.7708 59.7626 54.1261 59.7626C54.4814 59.7626 54.8331 59.6938 55.1611 59.5603C55.489 59.4267 55.7867 59.231 56.0368 58.9844C56.2869 58.7378 56.4846 58.4453 56.6185 58.1237C56.7523 57.802 56.8196 57.4577 56.8166 57.1105V47.2291L69.1076 40.2924C69.5167 40.0614 69.8563 39.7293 70.0924 39.3294C70.3286 38.9295 70.4528 38.4759 70.4527 38.0142V24.0454L78.7765 18.7491C79.3746 18.3686 79.7937 17.7715 79.9416 17.0892C80.0894 16.4069 79.954 15.6951 79.5651 15.1102ZM15.9073 24.1396L26.8532 17.963L37.7991 24.1396V36.4945L26.8532 42.6723L15.9073 36.4945V24.1396ZM65.0719 36.4945L54.126 42.6723L43.1801 36.4945V24.1396L54.126 17.963L65.0719 24.1396V36.4945Z" fill="#B6FFFA"/>
</svg>
