<svg width="80" height="80" viewBox="0 0 80 80" fill="none" xmlns="http://www.w3.org/2000/svg">
<path opacity="0.5" d="M10 34.7234C10 24.0634 10 18.7334 11.26 16.94C12.5167 15.15 17.5267 13.4334 27.55 10.0034L29.46 9.35002C34.6833 7.56002 37.2933 6.66669 40 6.66669C42.7033 6.66669 45.3167 7.56002 50.54 9.35002L52.45 10.0034C62.4733 13.4334 67.4833 15.15 68.74 16.94C70 18.7334 70 24.0667 70 34.7234V39.97C70 58.7634 55.87 67.8867 47.0033 71.7567C44.6 72.8067 43.4 73.3334 40 73.3334C36.6 73.3334 35.4 72.8067 32.9967 71.7567C24.13 67.8834 10 58.7667 10 39.97V34.7234Z" stroke="#B6FFFA" stroke-width="4"/>
<path d="M39.9997 36.6667C43.6816 36.6667 46.6663 33.6819 46.6663 30C46.6663 26.3181 43.6816 23.3334 39.9997 23.3334C36.3178 23.3334 33.333 26.3181 33.333 30C33.333 33.6819 36.3178 36.6667 39.9997 36.6667Z" stroke="#B6FFFA" stroke-width="4"/>
<path d="M53.3337 50C53.3337 53.6834 53.3337 56.6667 40.0003 56.6667C26.667 56.6667 26.667 53.6834 26.667 50C26.667 46.3167 32.6337 43.3334 40.0003 43.3334C47.367 43.3334 53.3337 46.3167 53.3337 50Z" stroke="#B6FFFA" stroke-width="4"/>
</svg>
