<svg width="80" height="80" viewBox="0 0 80 80" fill="none" xmlns="http://www.w3.org/2000/svg">
<path d="M69.8068 10.1934C78.0401 18.4234 71.3668 38.44 54.9068 54.9034C38.4401 71.3667 18.4234 78.0367 10.1934 69.8067C1.96011 61.5734 8.63344 41.5567 25.0968 25.0967C41.5601 8.63336 61.5768 1.96336 69.8068 10.1934ZM10.1934 10.1934C1.96011 18.4267 8.63344 38.4434 25.0934 54.9034C41.5601 71.3667 61.5768 78.0367 69.8068 69.8067C78.0401 61.5767 71.3668 41.56 54.9034 25.0967C38.4401 8.63336 18.4234 1.96336 10.1934 10.1934Z" stroke="#B6FFFA" stroke-width="4"/>
<path opacity="0.5" d="M48.3337 40.0001C48.3337 42.2102 47.4557 44.3298 45.8929 45.8926C44.3301 47.4554 42.2105 48.3334 40.0003 48.3334C37.7902 48.3334 35.6706 47.4554 34.1078 45.8926C32.545 44.3298 31.667 42.2102 31.667 40.0001C31.667 37.7899 32.545 35.6703 34.1078 34.1075C35.6706 32.5447 37.7902 31.6667 40.0003 31.6667C42.2105 31.6667 44.3301 32.5447 45.8929 34.1075C47.4557 35.6703 48.3337 37.7899 48.3337 40.0001Z" stroke="#B6FFFA" stroke-width="4"/>
</svg>
