<svg width="360" height="638" viewBox="0 0 360 638" fill="none" xmlns="http://www.w3.org/2000/svg">
<rect width="360" height="638" fill="#D5D5D5"/>
<g clip-path="url(#clip0_958_24)">
<rect width="360" height="6293" fill="#0A0909"/>
<g opacity="0.05" clip-path="url(#clip1_958_24)">
<rect width="40.5251" height="1092.97" transform="matrix(0.85807 0.513533 -0.119112 0.992881 -1.2124 -234)" fill="#B6FFFA"/>
<rect width="40.5251" height="1092.97" transform="matrix(0.85807 0.513533 -0.119112 0.992881 64.7876 -234)" fill="#B6FFFA"/>
<rect width="40.5251" height="1092.97" transform="matrix(0.85807 0.513533 -0.119112 0.992881 129.747 -234)" fill="#B6FFFA"/>
<rect width="40.5251" height="1092.97" transform="matrix(0.85807 0.513533 -0.119112 0.992881 194.707 -234)" fill="#B6FFFA"/>
<rect width="40.5251" height="1092.97" transform="matrix(0.85807 0.513533 -0.119112 0.992881 259.666 -234)" fill="#B6FFFA"/>
<rect width="40.5251" height="1092.97" transform="matrix(0.85807 0.513533 -0.119112 0.992881 325.666 -234)" fill="#B6FFFA"/>
<rect width="40.5251" height="1092.97" transform="matrix(0.85807 0.513533 -0.119112 0.992881 390.625 -234)" fill="#B6FFFA"/>
<rect width="40.5251" height="1092.97" transform="matrix(0.85807 0.513533 -0.119112 0.992881 455.585 -234)" fill="#B6FFFA"/>
</g>
</g>
<defs>
<clipPath id="clip0_958_24">
<rect width="360" height="6293" fill="white"/>
</clipPath>
<clipPath id="clip1_958_24">
<rect width="1926.15" height="638" fill="white" transform="translate(-783.074)"/>
</clipPath>
</defs>
</svg>
