<svg width="700" height="620" viewBox="0 0 700 620" fill="none" xmlns="http://www.w3.org/2000/svg">
    <rect width="700" height="620" fill="#d5d5d5" />
    <g clip-path="url(#clip0_958_24)">
        <rect width="700" height="6293" transform="translate(0,-2742)" fill="#0a0909" />
        <g opacity="0.05" clip-path="url(#clip1_958_24)">
            <rect x="70.7" y="-26.2" width="37.3" height="720.3" transform="matrix(1.5,0.4,-0.3,1,-34.1,-51)"
                fill="#b6fffa" />
            <rect x="70.7" y="-26.2" width="37.3" height="720.3" transform="matrix(1.5,0.4,-0.3,1,73.5,-51)"
                fill="#b6fffa" />
            <rect x="70.7" y="-26.2" width="37.3" height="720.3" transform="matrix(1.5,0.4,-0.3,1,179.5,-51)"
                fill="#b6fffa" />
            <rect x="70.7" y="-26.2" width="37.3" height="720.3" transform="matrix(1.5,0.4,-0.3,1,285.5,-51)"
                fill="#b6fffa" />
            <rect x="70.7" y="-26.2" width="37.3" height="720.3" transform="matrix(1.5,0.4,-0.3,1,391.4,-51)"
                fill="#b6fffa" />
            <rect x="70.7" y="-26.2" width="37.3" height="720.3" transform="matrix(1.5,0.4,-0.3,1,499.1,-51)"
                fill="#b6fffa" />
            <rect x="70.7" y="-26.2" width="37.3" height="720.3" transform="matrix(1.5,0.4,-0.3,1,605.1,-51)"
                fill="#b6fffa" />
            <rect x="70.7" y="-26.2" width="37.3" height="720.3" transform="matrix(1.5,0.4,-0.3,1,711,-51)"
                fill="#b6fffa" />
        </g>
    </g>
    <defs>
        <clipPath id="clip0_958_24">
            <rect width="700" height="6293" fill="white" transform="translate(0,-2742)" />
        </clipPath>
        <clipPath id="clip1_958_24">
            <rect width="1926" height="620" fill="white" transform="translate(-783)" />
        </clipPath>
    </defs>
</svg>