<svg width="1440" height="468" viewBox="0 0 1440 468" fill="none" xmlns="http://www.w3.org/2000/svg">
<rect width="1440" height="468" fill="#D5D5D5"/>
<g clip-path="url(#clip0_958_24)">
<rect width="1440" height="3892" fill="#0A0909"/>
<g opacity="0.05" clip-path="url(#clip1_958_24)">
<rect width="36.8741" height="652.844" transform="matrix(0.94303 0.332709 -0.199414 0.979915 17.0312 -92)" fill="#B6FFFA"/>
<rect width="36.8741" height="652.844" transform="matrix(0.94303 0.332709 -0.199414 0.979915 83.0312 -92)" fill="#B6FFFA"/>
<rect width="36.8741" height="652.844" transform="matrix(0.94303 0.332709 -0.199414 0.979915 147.991 -92)" fill="#B6FFFA"/>
<rect width="36.8741" height="652.844" transform="matrix(0.94303 0.332709 -0.199414 0.979915 212.95 -92)" fill="#B6FFFA"/>
<rect width="36.8741" height="652.844" transform="matrix(0.94303 0.332709 -0.199414 0.979915 277.909 -92)" fill="#B6FFFA"/>
<rect width="36.8741" height="652.844" transform="matrix(0.94303 0.332709 -0.199414 0.979915 343.909 -92)" fill="#B6FFFA"/>
<rect width="36.8741" height="652.844" transform="matrix(0.94303 0.332709 -0.199414 0.979915 408.868 -92)" fill="#B6FFFA"/>
<rect width="36.8741" height="652.844" transform="matrix(0.94303 0.332709 -0.199414 0.979915 473.828 -92)" fill="#B6FFFA"/>
<rect width="36.8741" height="652.844" transform="matrix(0.94303 0.332709 -0.199414 0.979915 538.787 -92)" fill="#B6FFFA"/>
<rect width="36.8741" height="652.844" transform="matrix(0.94303 0.332709 -0.199414 0.979915 604.787 -92)" fill="#B6FFFA"/>
<rect width="36.8741" height="652.844" transform="matrix(0.94303 0.332709 -0.199414 0.979915 669.746 -92)" fill="#B6FFFA"/>
<rect width="36.8741" height="652.844" transform="matrix(0.94303 0.332709 -0.199414 0.979915 734.706 -92)" fill="#B6FFFA"/>
<rect width="36.8741" height="652.844" transform="matrix(0.94303 0.332709 -0.199414 0.979915 799.665 -92)" fill="#B6FFFA"/>
<rect width="36.8741" height="652.844" transform="matrix(0.94303 0.332709 -0.199414 0.979915 865.665 -92)" fill="#B6FFFA"/>
<rect width="36.8741" height="652.844" transform="matrix(0.94303 0.332709 -0.199414 0.979915 930.624 -92)" fill="#B6FFFA"/>
<rect width="36.8741" height="652.844" transform="matrix(0.94303 0.332709 -0.199414 0.979915 995.583 -92)" fill="#B6FFFA"/>
<rect width="36.8741" height="652.844" transform="matrix(0.94303 0.332709 -0.199414 0.979915 1060.54 -92)" fill="#B6FFFA"/>
<rect width="36.8741" height="652.844" transform="matrix(0.94303 0.332709 -0.199414 0.979915 1126.54 -92)" fill="#B6FFFA"/>
<rect width="36.8741" height="652.844" transform="matrix(0.94303 0.332709 -0.199414 0.979915 1191.5 -92)" fill="#B6FFFA"/>
<rect width="36.8741" height="652.844" transform="matrix(0.94303 0.332709 -0.199414 0.979915 1256.46 -92)" fill="#B6FFFA"/>
<rect width="36.8741" height="652.844" transform="matrix(0.94303 0.332709 -0.199414 0.979915 1321.42 -92)" fill="#B6FFFA"/>
<rect width="36.8741" height="652.844" transform="matrix(0.94303 0.332709 -0.199414 0.979915 1387.42 -92)" fill="#B6FFFA"/>
<rect width="36.8741" height="652.844" transform="matrix(0.94303 0.332709 -0.199414 0.979915 1452.38 -92)" fill="#B6FFFA"/>
<rect width="36.8741" height="652.844" transform="matrix(0.94303 0.332709 -0.199414 0.979915 1517.34 -92)" fill="#B6FFFA"/>
</g>
</g>
<defs>
<clipPath id="clip0_958_24">
<rect width="1440" height="3892" fill="white"/>
</clipPath>
<clipPath id="clip1_958_24">
<rect width="1926.15" height="468" fill="white" transform="translate(-243.073)"/>
</clipPath>
</defs>
</svg>
