<svg width="1440" height="18" viewBox="0 0 1440 18" fill="none" xmlns="http://www.w3.org/2000/svg">
<g opacity="0.15" clip-path="url(#clip0_973_271)">
<rect width="35.427" height="376.453" transform="matrix(0.98155 0.191208 -0.345822 0.9383 17.1047 -171)" fill="#B6FFFA"/>
<rect width="35.427" height="376.453" transform="matrix(0.98155 0.191208 -0.345822 0.9383 83.1045 -171)" fill="#B6FFFA"/>
<rect width="35.427" height="376.453" transform="matrix(0.98155 0.191208 -0.345822 0.9383 148.064 -171)" fill="#B6FFFA"/>
<rect width="35.427" height="376.453" transform="matrix(0.98155 0.191208 -0.345822 0.9383 213.023 -171)" fill="#B6FFFA"/>
<rect width="35.427" height="376.453" transform="matrix(0.98155 0.191208 -0.345822 0.9383 277.982 -171)" fill="#B6FFFA"/>
<rect width="35.427" height="376.453" transform="matrix(0.98155 0.191208 -0.345822 0.9383 343.982 -171)" fill="#B6FFFA"/>
<rect width="35.427" height="376.453" transform="matrix(0.98155 0.191208 -0.345822 0.9383 408.942 -171)" fill="#B6FFFA"/>
<rect width="35.427" height="376.453" transform="matrix(0.98155 0.191208 -0.345822 0.9383 473.901 -171)" fill="#B6FFFA"/>
<rect width="35.427" height="376.453" transform="matrix(0.98155 0.191208 -0.345822 0.9383 538.86 -171)" fill="#B6FFFA"/>
<rect width="35.427" height="376.453" transform="matrix(0.98155 0.191208 -0.345822 0.9383 604.86 -171)" fill="#B6FFFA"/>
<rect width="35.427" height="376.453" transform="matrix(0.98155 0.191208 -0.345822 0.9383 669.82 -171)" fill="#B6FFFA"/>
<rect width="35.427" height="376.453" transform="matrix(0.98155 0.191208 -0.345822 0.9383 734.779 -171)" fill="#B6FFFA"/>
<rect width="35.427" height="376.453" transform="matrix(0.98155 0.191208 -0.345822 0.9383 799.738 -171)" fill="#B6FFFA"/>
<rect width="35.427" height="376.453" transform="matrix(0.98155 0.191208 -0.345822 0.9383 865.738 -171)" fill="#B6FFFA"/>
<rect width="35.427" height="376.453" transform="matrix(0.98155 0.191208 -0.345822 0.9383 930.698 -171)" fill="#B6FFFA"/>
<rect width="35.427" height="376.453" transform="matrix(0.98155 0.191208 -0.345822 0.9383 995.658 -171)" fill="#B6FFFA"/>
<rect width="35.427" height="376.453" transform="matrix(0.98155 0.191208 -0.345822 0.9383 1060.62 -171)" fill="#B6FFFA"/>
<rect width="35.427" height="376.453" transform="matrix(0.98155 0.191208 -0.345822 0.9383 1126.62 -171)" fill="#B6FFFA"/>
<rect width="35.427" height="376.453" transform="matrix(0.98155 0.191208 -0.345822 0.9383 1191.58 -171)" fill="#B6FFFA"/>
<rect width="35.427" height="376.453" transform="matrix(0.98155 0.191208 -0.345822 0.9383 1256.54 -171)" fill="#B6FFFA"/>
<rect width="35.427" height="376.453" transform="matrix(0.98155 0.191208 -0.345822 0.9383 1321.5 -171)" fill="#B6FFFA"/>
<rect width="35.427" height="376.453" transform="matrix(0.98155 0.191208 -0.345822 0.9383 1387.5 -171)" fill="#B6FFFA"/>
<rect width="35.427" height="376.453" transform="matrix(0.98155 0.191208 -0.345822 0.9383 1452.45 -171)" fill="#B6FFFA"/>
<rect width="35.427" height="376.453" transform="matrix(0.98155 0.191208 -0.345822 0.9383 1517.41 -171)" fill="#B6FFFA"/>
</g>
<defs>
<clipPath id="clip0_973_271">
<rect width="1926.15" height="18" fill="white" transform="translate(-243)"/>
</clipPath>
</defs>
</svg>
