<svg width="100" height="100" viewBox="0 0 100 100" fill="none" xmlns="http://www.w3.org/2000/svg">
<g clip-path="url(#clip0_1022_11716)">
<mask id="mask0_1022_11716" style="mask-type:luminance" maskUnits="userSpaceOnUse" x="0" y="0" width="100" height="100">
<path d="M100 0H0V100H100V0Z" fill="white"/>
</mask>
<g mask="url(#mask0_1022_11716)">
<path d="M100 50C100 49.5312 100 49.0037 99.9414 48.5352L93.9453 47.0703L99.2969 41.6795C97.8906 33.3006 94.1799 25.5662 89.0816 19.1797L82.2266 23.6328L85.2148 14.7852C85.2148 14.7266 85.1562 14.7852 85.1562 14.7852C76.7777 6.40625 65.4688 0.820312 52.9297 0.0585938L50 6.05469L47.0703 0.0585938C34.5312 0.820312 23.2223 6.40625 14.8438 14.7264L17.7734 23.6328L10.9771 19.0623C5.82012 25.5078 2.10938 33.3006 0.703125 41.7967L6.05469 47.0703L0.0585938 48.5938C0 49.0623 0 49.5312 0 50C0 61.6602 4.1793 72.3828 10.9184 80.8787L17.7734 76.3672L14.8438 85.2732C23.2223 93.5938 34.5312 99.1797 47.0703 99.9414L50 93.9453L52.9297 99.9414C65.4688 99.1797 76.8363 93.5938 85.2148 85.215L82.2266 76.3672L89.0816 80.8203C95.8207 72.3242 100 61.6014 100 50Z" fill="url(#paint0_linear_1022_11716)"/>
<path d="M99.9414 48.5352C99.8828 46.1912 99.7068 43.9061 99.2969 41.6795C92.5584 47.1291 84.7457 51.3477 76.6604 54.2186C76.5432 52.8123 76.3672 51.4062 76.3672 50C76.3672 38.1639 81.1137 27.1482 89.0816 19.1797C87.91 17.6562 86.6211 16.1914 85.215 14.7852C85.215 14.7266 85.1564 14.7852 85.1564 14.7852C76.0154 23.8672 70.508 36.4062 70.508 50C70.508 51.992 70.684 53.9258 70.9186 55.918C65.1178 57.4998 59.0824 58.3789 52.9299 58.6131V0.0585938C51.934 0 50.9957 0 50 0C49.0043 0 48.066 0 47.0703 0.0585938V58.6717C40.9178 58.4375 34.8824 57.5584 29.0816 55.9762C29.3162 54.043 29.4922 51.992 29.4922 50C29.4922 36.4062 24.0434 23.867 14.8437 14.7264C13.4963 16.0738 12.2072 17.5387 10.9771 19.0623C18.9451 27.1482 23.6328 38.1639 23.6328 50C23.6328 51.4062 23.5154 52.8123 23.3982 54.2186C15.1957 51.3475 7.4416 47.1873 0.703125 41.7967C0.293359 44.0232 0.0585938 46.3086 0.0585938 48.5938C6.79629 53.5154 14.4918 57.3828 22.4025 60.0779C20.5857 67.8709 16.6018 75.1365 10.9184 80.8787C12.1486 82.4021 13.4375 83.867 14.8437 85.2732C21.3477 78.7695 25.8594 70.5666 28.0273 61.7775C34.1799 63.418 40.5078 64.3557 47.0703 64.5312V99.9414C48.066 100 49.0043 100 50 100C50.9957 100 51.934 100 52.9297 99.9414V64.4725C59.4336 64.2383 65.8201 63.3006 71.9727 61.6602C74.1406 70.6248 78.7111 78.8281 85.2148 85.215C86.6211 83.8084 87.91 82.3436 89.0814 80.8205C83.4566 75.1367 79.4727 67.9299 77.5973 60.0195C85.5082 57.3242 93.1449 53.4568 99.9414 48.5352Z" fill="url(#paint1_linear_1022_11716)"/>
</g>
</g>
<defs>
<linearGradient id="paint0_linear_1022_11716" x1="50" y1="99.9414" x2="50" y2="0.0585938" gradientUnits="userSpaceOnUse">
<stop stop-color="#A93AFF"/>
<stop offset="1" stop-color="#FF81FF"/>
</linearGradient>
<linearGradient id="paint1_linear_1022_11716" x1="50" y1="100" x2="50" y2="0" gradientUnits="userSpaceOnUse">
<stop stop-color="#FFBEF9"/>
<stop offset="1" stop-color="#FFF1FF"/>
</linearGradient>
<clipPath id="clip0_1022_11716">
<rect width="100" height="100" fill="white"/>
</clipPath>
</defs>
</svg>
