<svg width="1440" height="895" viewBox="0 0 1440 895" fill="none" xmlns="http://www.w3.org/2000/svg">
<rect width="1440" height="895" fill="#D5D5D5"/>
<g clip-path="url(#clip0_958_24)">
<rect width="1440" height="2581" fill="#0A0909"/>
<g opacity="0.05" clip-path="url(#clip1_958_24)">
<rect width="39.5379" height="989.783" transform="matrix(0.879494 0.475909 -0.13153 0.991312 17.0312 -52.5)" fill="#B6FFFA"/>
<rect width="39.5379" height="989.783" transform="matrix(0.879494 0.475909 -0.13153 0.991312 83.0312 -52.5)" fill="#B6FFFA"/>
<rect width="39.5379" height="989.783" transform="matrix(0.879494 0.475909 -0.13153 0.991312 147.99 -52.5)" fill="#B6FFFA"/>
<rect width="39.5379" height="989.783" transform="matrix(0.879494 0.475909 -0.13153 0.991312 212.95 -52.5)" fill="#B6FFFA"/>
<rect width="39.5379" height="989.783" transform="matrix(0.879494 0.475909 -0.13153 0.991312 277.909 -52.5)" fill="#B6FFFA"/>
<rect width="39.5379" height="989.783" transform="matrix(0.879494 0.475909 -0.13153 0.991312 343.909 -52.5)" fill="#B6FFFA"/>
<rect width="39.5379" height="989.783" transform="matrix(0.879494 0.475909 -0.13153 0.991312 408.869 -52.5)" fill="#B6FFFA"/>
<rect width="39.5379" height="989.783" transform="matrix(0.879494 0.475909 -0.13153 0.991312 473.828 -52.5)" fill="#B6FFFA"/>
<rect width="39.5379" height="989.783" transform="matrix(0.879494 0.475909 -0.13153 0.991312 538.787 -52.5)" fill="#B6FFFA"/>
<rect width="39.5379" height="989.783" transform="matrix(0.879494 0.475909 -0.13153 0.991312 604.787 -52.5)" fill="#B6FFFA"/>
<rect width="39.5379" height="989.783" transform="matrix(0.879494 0.475909 -0.13153 0.991312 669.746 -52.5)" fill="#B6FFFA"/>
<rect width="39.5379" height="989.783" transform="matrix(0.879494 0.475909 -0.13153 0.991312 734.706 -52.5)" fill="#B6FFFA"/>
<rect width="39.5379" height="989.783" transform="matrix(0.879494 0.475909 -0.13153 0.991312 799.665 -52.5)" fill="#B6FFFA"/>
<rect width="39.5379" height="989.783" transform="matrix(0.879494 0.475909 -0.13153 0.991312 865.665 -52.5)" fill="#B6FFFA"/>
<rect width="39.5379" height="989.783" transform="matrix(0.879494 0.475909 -0.13153 0.991312 930.624 -52.5)" fill="#B6FFFA"/>
<rect width="39.5379" height="989.783" transform="matrix(0.879494 0.475909 -0.13153 0.991312 995.584 -52.5)" fill="#B6FFFA"/>
<rect width="39.5379" height="989.783" transform="matrix(0.879494 0.475909 -0.13153 0.991312 1060.54 -52.5)" fill="#B6FFFA"/>
<rect width="39.5379" height="989.783" transform="matrix(0.879494 0.475909 -0.13153 0.991312 1126.54 -52.5)" fill="#B6FFFA"/>
<rect width="39.5379" height="989.783" transform="matrix(0.879494 0.475909 -0.13153 0.991312 1191.5 -52.5)" fill="#B6FFFA"/>
<rect width="39.5379" height="989.783" transform="matrix(0.879494 0.475909 -0.13153 0.991312 1256.46 -52.5)" fill="#B6FFFA"/>
<rect width="39.5379" height="989.783" transform="matrix(0.879494 0.475909 -0.13153 0.991312 1321.42 -52.5)" fill="#B6FFFA"/>
<rect width="39.5379" height="989.783" transform="matrix(0.879494 0.475909 -0.13153 0.991312 1387.42 -52.5)" fill="#B6FFFA"/>
<rect width="39.5379" height="989.783" transform="matrix(0.879494 0.475909 -0.13153 0.991312 1452.38 -52.5)" fill="#B6FFFA"/>
<rect width="39.5379" height="989.783" transform="matrix(0.879494 0.475909 -0.13153 0.991312 1517.34 -52.5)" fill="#B6FFFA"/>
</g>
</g>
<defs>
<clipPath id="clip0_958_24">
<rect width="1440" height="2581" fill="white"/>
</clipPath>
<clipPath id="clip1_958_24">
<rect width="1926.15" height="895" fill="white" transform="translate(-243.073)"/>
</clipPath>
</defs>
</svg>
