<svg width="700" height="914" viewBox="5 0 700 914" fill="none" xmlns="http://www.w3.org/2000/svg">
    <rect width="700" height="914" fill="#d5d5d5" />
    <g clip-path="url(#clip0_958_24)">
        <rect x="5" y="0" width="700" height="4907" fill="#0a0909" />
        <g opacity="0.05" clip-path="url(#clip1_958_24)">
            <rect x="69.4" y="-44.6" width="40.5" height="1093" transform="matrix(1.5,0.5,-0.2,1,-35.6,-96)"
                fill="#b6fffa" />
            <rect x="69.4" y="-44.6" width="40.5" height="1093" transform="matrix(1.5,0.5,-0.2,1,73.1,-96)"
                fill="#b6fffa" />
            <rect x="69.4" y="-44.6" width="40.5" height="1093" transform="matrix(1.5,0.5,-0.2,1,180,-96)"
                fill="#b6fffa" />
            <rect x="69.4" y="-44.6" width="40.5" height="1093" transform="matrix(1.5,0.5,-0.2,1,287,-96)"
                fill="#b6fffa" />
            <rect x="69.4" y="-44.6" width="40.5" height="1093" transform="matrix(1.5,0.5,-0.2,1,394.1,-96)"
                fill="#b6fffa" />
            <rect x="69.4" y="-44.6" width="40.5" height="1093" transform="matrix(1.5,0.5,-0.2,1,502.8,-96)"
                fill="#b6fffa" />
            <rect x="69.4" y="-44.6" width="40.5" height="1093" transform="matrix(1.5,0.5,-0.2,1,609.7,-96)"
                fill="#b6fffa" />
            <rect x="69.4" y="-44.6" width="40.5" height="1093" transform="matrix(1.5,0.5,-0.2,1,716.8,-96)"
                fill="#b6fffa" />
            <rect x="69.4" y="-44.6" width="40.5" height="1093" transform="matrix(1.5,0.5,-0.2,1,-35.6,-96)"
                fill="#b6fffa" />
            <rect x="69.4" y="-44.6" width="40.5" height="1093" transform="matrix(1.5,0.5,-0.2,1,73.1,-96)"
                fill="#b6fffa" />
            <rect x="69.4" y="-44.6" width="40.5" height="1093" transform="matrix(1.5,0.5,-0.2,1,180,-96)"
                fill="#b6fffa" />
            <rect x="69.4" y="-44.6" width="40.5" height="1093" transform="matrix(1.5,0.5,-0.2,1,287,-96)"
                fill="#b6fffa" />
            <rect x="69.4" y="-44.6" width="40.5" height="1093" transform="matrix(1.5,0.5,-0.2,1,394.1,-96)"
                fill="#b6fffa" />
            <rect x="69.4" y="-44.6" width="40.5" height="1093" transform="matrix(1.5,0.5,-0.2,1,502.8,-96)"
                fill="#b6fffa" />
            <rect x="69.4" y="-44.6" width="40.5" height="1093" transform="matrix(1.5,0.5,-0.2,1,609.7,-96)"
                fill="#b6fffa" />
            <rect x="69.4" y="-44.6" width="40.5" height="1093" transform="matrix(1.5,0.5,-0.2,1,716.8,-96)"
                fill="#b6fffa" />
            <rect x="69.4" y="-44.6" width="40.5" height="1093" transform="matrix(1.5,0.5,-0.2,1,-35.6,-96)"
                fill="#b6fffa" />
            <rect x="69.4" y="-44.6" width="40.5" height="1093" transform="matrix(1.5,0.5,-0.2,1,73.1,-96)"
                fill="#b6fffa" />
            <rect x="69.4" y="-44.6" width="40.5" height="1093" transform="matrix(1.5,0.5,-0.2,1,180,-96)"
                fill="#b6fffa" />
            <rect x="69.4" y="-44.6" width="40.5" height="1093" transform="matrix(1.5,0.5,-0.2,1,287,-96)"
                fill="#b6fffa" />
            <rect x="69.4" y="-44.6" width="40.5" height="1093" transform="matrix(1.5,0.5,-0.2,1,394.1,-96)"
                fill="#b6fffa" />
            <rect x="69.4" y="-44.6" width="40.5" height="1093" transform="matrix(1.5,0.5,-0.2,1,502.8,-96)"
                fill="#b6fffa" />
            <rect x="69.4" y="-44.6" width="40.5" height="1093" transform="matrix(1.5,0.5,-0.2,1,609.7,-96)"
                fill="#b6fffa" />
            <rect x="69.4" y="-44.6" width="40.5" height="1093" transform="matrix(1.5,0.5,-0.2,1,716.8,-96)"
                fill="#b6fffa" />
            <rect x="69.4" y="-44.6" width="40.5" height="1093" transform="matrix(1.5,0.5,-0.2,1,-35.6,-96)"
                fill="#b6fffa" />
            <rect x="69.4" y="-44.6" width="40.5" height="1093" transform="matrix(1.5,0.5,-0.2,1,73.1,-96)"
                fill="#b6fffa" />
            <rect x="69.4" y="-44.6" width="40.5" height="1093" transform="matrix(1.5,0.5,-0.2,1,180,-96)"
                fill="#b6fffa" />
            <rect x="69.4" y="-44.6" width="40.5" height="1093" transform="matrix(1.5,0.5,-0.2,1,287,-96)"
                fill="#b6fffa" />
            <rect x="69.4" y="-44.6" width="40.5" height="1093" transform="matrix(1.5,0.5,-0.2,1,394.1,-96)"
                fill="#b6fffa" />
            <rect x="69.4" y="-44.6" width="40.5" height="1093" transform="matrix(1.5,0.5,-0.2,1,502.8,-96)"
                fill="#b6fffa" />
            <rect x="69.4" y="-44.6" width="40.5" height="1093" transform="matrix(1.5,0.5,-0.2,1,609.7,-96)"
                fill="#b6fffa" />
            <rect x="69.4" y="-44.6" width="40.5" height="1093" transform="matrix(1.5,0.5,-0.2,1,716.8,-96)"
                fill="#b6fffa" />
        </g>
    </g>
    <defs>
        <clipPath id="clip0_958_24">
            <rect width="700" height="4907" fill="white" />
        </clipPath>
        <clipPath id="clip1_958_24">
            <rect width="1926.2" height="914" fill="white" transform="translate(-783.1)" />
        </clipPath>
    </defs>
</svg>