<svg width="80" height="80" viewBox="0 0 80 80" fill="none" xmlns="http://www.w3.org/2000/svg">
<path opacity="0.5" d="M25 60C26.3261 60 27.5979 60.5268 28.5355 61.4645C29.4732 62.4022 30 63.6739 30 65C30 66.3261 29.4732 67.5978 28.5355 68.5355C27.5979 69.4732 26.3261 70 25 70C23.6739 70 22.4021 69.4732 21.4645 68.5355C20.5268 67.5978 20 66.3261 20 65C20 63.6739 20.5268 62.4022 21.4645 61.4645C22.4021 60.5268 23.6739 60 25 60ZM55 60C56.3261 60 57.5978 60.5268 58.5355 61.4645C59.4732 62.4022 60 63.6739 60 65C60 66.3261 59.4732 67.5978 58.5355 68.5355C57.5978 69.4732 56.3261 70 55 70C53.6739 70 52.4021 69.4732 51.4645 68.5355C50.5268 67.5978 50 66.3261 50 65C50 63.6739 50.5268 62.4022 51.4645 61.4645C52.4021 60.5268 53.6739 60 55 60Z" stroke="#B6FFFA" stroke-width="4"/>
<path d="M7.49674 7.63999C6.87083 7.41986 6.18311 7.45739 5.58487 7.74432C4.98663 8.03125 4.52687 8.54408 4.30674 9.16999C4.08661 9.7959 4.12414 10.4836 4.41107 11.0819C4.698 11.6801 5.21083 12.1399 5.83674 12.36L7.49674 7.63999ZM68.8601 32.9433L71.3067 33.4467L71.3101 33.4333L68.8601 32.9433ZM69.1134 22.3267L67.1334 23.8467L69.1167 22.3233L69.1134 22.3267ZM19.0267 32.5333V23.46H14.0267V32.5333H19.0267ZM8.36674 7.94666L7.49674 7.63999L5.83674 12.36L6.70674 12.6633L8.36674 7.94666ZM36.4601 54.1667H54.1334V49.1667H36.4601V54.1667ZM19.0267 23.46C19.0267 21.1033 19.0301 19.1367 18.8601 17.54C18.6767 15.8833 18.2934 14.3733 17.3534 13L13.2234 15.82C13.5234 16.26 13.7567 16.8667 13.8867 18.0767C14.0234 19.3433 14.0267 20.9933 14.0267 23.46H19.0267ZM6.70674 12.6633C8.93341 13.4467 10.3967 13.9667 11.4734 14.5C12.4834 14.9933 12.9301 15.3933 13.2234 15.8233L17.3534 13C16.4067 11.6133 15.1434 10.7267 13.6734 10.0033C12.2734 9.31666 10.4801 8.68999 8.36674 7.94666L6.70674 12.6633ZM14.0267 32.5333C14.0267 37.3767 14.0734 40.8667 14.5267 43.5333C15.0167 46.38 15.9934 48.42 17.8101 50.34L21.4401 46.9C20.3734 45.7733 19.7967 44.6733 19.4567 42.69C19.0901 40.5233 19.0267 37.4967 19.0267 32.5333H14.0267ZM36.4601 49.1667C31.7367 49.1667 28.4601 49.16 25.9901 48.81C23.6067 48.4733 22.3501 47.86 21.4401 46.9L17.8101 50.34C19.7901 52.43 22.3001 53.34 25.2867 53.76C28.1867 54.1733 31.8901 54.1667 36.4601 54.1667V49.1667ZM16.5267 22.9H56.9601V17.9H16.5301L16.5267 22.9ZM66.4101 32.4367L64.7434 40.52L69.6434 41.5267L71.3067 33.4467L66.4101 32.4367ZM56.9667 22.9C59.8201 22.9 62.3334 22.9033 64.3167 23.1233C65.3001 23.2367 66.0401 23.39 66.5567 23.57C67.0934 23.76 67.1801 23.9033 67.1367 23.8467L71.1001 20.8C70.3167 19.78 69.2167 19.2033 68.2134 18.8533C67.1284 18.4966 66.007 18.2618 64.8701 18.1533C62.5534 17.8967 59.7267 17.9 56.9667 17.9V22.9ZM71.3101 33.4333C71.8767 30.6067 72.3567 28.2333 72.4734 26.3333C72.5967 24.38 72.3734 22.4533 71.1001 20.8L67.1367 23.8467C67.3434 24.1167 67.5701 24.6 67.4834 26.0267C67.3934 27.5067 67.0034 29.4833 66.4101 32.4533L71.3101 33.4333ZM54.1334 54.1667C56.6734 54.1667 58.8067 54.17 60.5267 53.96C62.3101 53.7433 63.9401 53.2633 65.3601 52.1067L62.2001 48.23C61.7834 48.57 61.1934 48.8433 59.9167 48.9967C58.5734 49.1633 56.8001 49.1667 54.1334 49.1667V54.1667ZM64.7501 40.52C64.2101 43.13 63.8501 44.8633 63.4167 46.1467C63.0067 47.3667 62.6167 47.89 62.2001 48.23L65.3601 52.1067C66.7834 50.9467 67.5801 49.45 68.1534 47.7433C68.7067 46.1033 69.1334 44.0167 69.6467 41.53L64.7501 40.52Z" fill="#B6FFFA"/>
<path opacity="0.5" d="M36.667 36L40.477 40L50.0003 30" stroke="#B6FFFA" stroke-width="4" stroke-linecap="round" stroke-linejoin="round"/>
</svg>
