<svg width="80" height="80" viewBox="0 0 80 80" fill="none" xmlns="http://www.w3.org/2000/svg">
<path d="M40.0003 73.3333C58.4103 73.3333 73.3337 58.41 73.3337 40C73.3337 21.59 58.4103 6.66667 40.0003 6.66667C21.5903 6.66667 6.66699 21.59 6.66699 40C6.66699 45.3333 7.92033 50.3733 10.1437 54.8433C10.737 56.03 10.9337 57.3867 10.5903 58.67L8.60699 66.09C8.41129 66.8241 8.41203 67.5967 8.60913 68.3304C8.80622 69.0642 9.19275 69.7332 9.72996 70.2704C10.2672 70.8076 10.9362 71.1941 11.6699 71.3912C12.4036 71.5883 13.1762 71.589 13.9103 71.3933L21.3303 69.41C22.6183 69.0859 23.9804 69.2435 25.1603 69.8533C29.7701 72.1488 34.8507 73.3402 40.0003 73.3333Z" stroke="#B6FFFA" stroke-width="4"/>
<path opacity="0.5" d="M40.0003 53.3333V26.6667M26.667 46.6667V33.3333M53.3337 46.6667V33.3333" stroke="#B6FFFA" stroke-width="4" stroke-linecap="round"/>
</svg>
