<svg width="81" height="80" viewBox="0 0 81 80" fill="none" xmlns="http://www.w3.org/2000/svg">
<path opacity="0.5" d="M40.5003 73.3333C58.9098 73.3333 73.8337 58.4095 73.8337 40C73.8337 21.5905 58.9098 6.66667 40.5003 6.66667C22.0908 6.66667 7.16699 21.5905 7.16699 40C7.16699 58.4095 22.0908 73.3333 40.5003 73.3333Z" stroke="#B6FFFA" stroke-width="4"/>
<path d="M30.21 53.1133C34.4033 54.1633 39.16 54.1633 43.95 52.88C48.74 51.5967 52.86 49.2167 55.9666 46.21" stroke="#B6FFFA" stroke-width="4" stroke-linecap="round"/>
<path d="M50.1576 37.4105C51.9358 36.934 52.7979 34.3855 52.0832 31.7181C51.3685 29.0508 49.3476 27.2748 47.5694 27.7512C45.7911 28.2277 44.929 30.7763 45.6437 33.4436C46.3584 36.1109 48.3793 37.887 50.1576 37.4105Z" fill="#B6FFFA"/>
<path d="M30.8411 42.5896C32.6194 42.1132 33.4815 39.5646 32.7668 36.8973C32.0521 34.2299 30.0312 32.4539 28.253 32.9304C26.4747 33.4068 25.6126 35.9554 26.3273 38.6227C27.042 41.2901 29.0629 43.0661 30.8411 42.5896Z" fill="#B6FFFA"/>
<path d="M43.834 53.3333L45.4273 56.58C45.7156 57.1712 46.1176 57.6998 46.6105 58.1354C47.1033 58.571 47.6773 58.905 48.2995 59.1184C48.9216 59.3318 49.5798 59.4204 50.2363 59.379C50.8927 59.3376 51.5346 59.1671 52.125 58.8773C52.7155 58.5874 53.2429 58.1839 53.6772 57.6899C54.1114 57.1958 54.4439 56.621 54.6556 55.9982C54.8673 55.3754 54.9541 54.717 54.9109 54.0607C54.8677 53.4044 54.6954 52.763 54.404 52.1733L52.8707 49.0567" stroke="#B6FFFA" stroke-width="4"/>
</svg>
