<svg width="81" height="80" viewBox="0 0 81 80" fill="none" xmlns="http://www.w3.org/2000/svg">
<path d="M55.5005 43.86L53.7438 45.64C54.2117 46.1021 54.8428 46.3612 55.5005 46.3612C56.1581 46.3612 56.7892 46.1021 57.2571 45.64L55.5005 43.86ZM39.6671 50.2C39.6671 46.9667 41.5871 44.24 44.2338 43.09C46.7571 41.9933 50.2671 42.21 53.7438 45.64L57.2571 42.0833C52.4805 37.3667 46.8238 36.5133 42.2438 38.5033C39.9805 39.5044 38.0583 41.1438 36.7125 43.2207C35.3668 45.2976 34.656 47.7219 34.6671 50.1967H39.6671V50.2ZM48.4338 69.2333C49.3605 69.9267 50.4271 70.7267 51.5271 71.3333C52.6271 71.9467 53.9805 72.5 55.5005 72.5V67.5C55.1871 67.5 54.7071 67.38 53.9571 66.9667C53.0782 66.4431 52.2342 65.863 51.4305 65.23L48.4305 69.23L48.4338 69.2333ZM62.5671 69.2333C65.1171 67.3233 68.5871 64.99 71.3005 62.0833C74.1005 59.0867 76.3338 55.26 76.3338 50.1967H71.3338C71.3338 53.6133 69.8805 56.28 67.6471 58.67C65.3305 61.1533 62.4205 63.0967 59.5705 65.23L62.5705 69.23L62.5671 69.2333ZM59.5705 65.23C58.7666 65.8619 57.9226 66.4408 57.0438 66.9633C56.2938 67.38 55.8138 67.5 55.5005 67.5V72.5C57.0205 72.5 58.3705 71.9467 59.4738 71.3333C60.5738 70.7267 61.6371 69.9267 62.5671 69.2333L59.5705 65.23ZM76.3338 50.1967C76.3422 46.8963 75.0765 43.7234 72.8005 41.3333L69.1838 44.7867C70.5071 46.17 71.3338 48.0767 71.3338 50.1967H76.3338ZM72.8005 41.3333C71.6657 40.1344 70.3004 39.1738 68.7864 38.5156C67.2725 37.8575 65.6412 37.512 63.9905 37.5C60.5105 37.4833 56.9205 38.9467 53.7438 42.0833L57.2571 45.64C59.6238 43.3067 61.9838 42.49 63.9671 42.5C65.9771 42.51 67.8305 43.37 69.1838 44.7867L72.8005 41.3333ZM51.4305 65.23C50.9502 64.8718 50.468 64.5162 49.9838 64.1633L47.0305 68.1967L48.4305 69.23L51.4305 65.23ZM49.9838 64.1633C44.5638 60.1933 39.6671 56.4733 39.6671 50.1967H34.6671C34.6671 59.42 42.0905 64.58 47.0305 68.1967L49.9838 64.1633Z" fill="#B6FFFA"/>
<path opacity="0.5" d="M40.5003 17.7233L38.6603 19.4167C38.8945 19.6712 39.1789 19.8744 39.4956 20.0134C39.8123 20.1525 40.1544 20.2242 40.5003 20.2242C40.8462 20.2242 41.1883 20.1525 41.505 20.0134C41.8217 19.8744 42.1062 19.6712 42.3403 19.4167L40.5003 17.7233ZM31.9637 62.5333C21.7837 54.14 9.66699 45.91 9.66699 30.3967H4.66699C4.66699 48.7833 19.347 58.6133 28.7837 66.39L31.9637 62.5333ZM9.66699 30.3967C9.66699 22.7967 13.7737 16.4833 19.287 13.85C24.607 11.3067 31.787 11.95 38.6603 19.4167L42.3403 16.03C34.2137 7.20001 24.727 5.70667 17.1303 9.33334C9.72699 12.8767 4.66699 21.0433 4.66699 30.3967H9.66699ZM28.7837 66.39C30.4903 67.7967 32.3237 69.2967 34.1837 70.4333C36.037 71.5667 38.1703 72.5 40.5003 72.5V67.5C39.497 67.5 38.3003 67.09 36.787 66.1667C35.2803 65.2467 33.717 63.9767 31.9637 62.5333L28.7837 66.39ZM76.3337 30.4C76.3337 21.05 71.2737 12.88 63.867 9.34001C56.2737 5.71001 46.787 7.20667 38.6603 16.0333L42.3403 19.42C49.2137 11.9533 56.3937 11.31 61.7137 13.8533C67.227 16.4867 71.3337 22.8 71.3337 30.4H76.3337ZM73.247 44.14C75.304 39.8532 76.3595 35.1548 76.3337 30.4H71.3337C71.3588 34.4086 70.4696 38.3701 68.7337 41.9833L73.247 44.14ZM46.9637 64.2167C44.207 66.3767 42.187 67.5 40.5003 67.5V72.5C44.1103 72.5 47.3837 70.24 50.0503 68.15L46.9637 64.2167Z" fill="#B6FFFA"/>
</svg>
