<svg width="81" height="80" viewBox="0 0 81 80" fill="none" xmlns="http://www.w3.org/2000/svg">
<path d="M13.833 20V63.3334C13.833 65.9855 14.8866 68.5291 16.7619 70.4044C18.6373 72.2798 21.1808 73.3334 23.833 73.3334H57.1663C59.8185 73.3334 62.362 72.2798 64.2374 70.4044C66.1128 68.5291 67.1663 65.9855 67.1663 63.3334V30C67.1663 27.3479 66.1128 24.8043 64.2374 22.929C62.362 21.0536 59.8185 20 57.1663 20H13.833ZM13.833 20V16.6667" stroke="#B6FFFA" stroke-width="4"/>
<path opacity="0.5" d="M40.5 53.3333C46.0228 53.3333 50.5 48.8562 50.5 43.3333C50.5 37.8105 46.0228 33.3333 40.5 33.3333C34.9772 33.3333 30.5 37.8105 30.5 43.3333C30.5 48.8562 34.9772 53.3333 40.5 53.3333Z" stroke="#B6FFFA" stroke-width="4"/>
<path d="M60.4997 20V22.5H62.9997V20H60.4997ZM17.3997 22.5H60.4997V17.5H17.403L17.3997 22.5ZM62.9997 20V14.3533H57.9997V20H62.9997ZM52.5363 5.28001L16.5463 10.42L17.253 15.37L53.243 10.2333L52.5363 5.28334V5.28001ZM16.5463 10.42C15.0988 10.6264 13.7744 11.3483 12.8166 12.4531C11.8589 13.5578 11.332 14.9712 11.333 16.4333H16.333C16.3322 16.1753 16.4249 15.9256 16.5941 15.7307C16.7633 15.5358 16.9974 15.4055 17.253 15.37L16.5463 10.4233V10.42ZM62.9997 14.3533C62.9995 13.0401 62.7172 11.7422 62.1718 10.5476C61.6264 9.35291 60.8306 8.2894 59.8385 7.42903C58.8463 6.56866 57.6808 5.93152 56.421 5.56075C55.1612 5.18999 53.8364 5.09424 52.5363 5.28001L53.243 10.2333C53.8339 10.1488 54.4361 10.1889 55.0087 10.3573C55.5814 10.5258 56.1112 10.8153 56.5622 11.2063C57.0133 11.5973 57.375 12.0806 57.623 12.6236C57.871 13.1665 57.9995 13.7564 57.9997 14.3533H62.9997ZM17.403 17.5C17.1192 17.5 16.8471 17.3873 16.6464 17.1866C16.4457 16.9859 16.333 16.7171 16.333 16.4333H11.333C11.3326 17.2306 11.4893 18.0168 11.7942 18.7534C12.0991 19.4901 12.5462 20.1594 13.1099 20.7231C13.6736 21.2869 14.343 21.734 15.0796 22.0389C15.8162 22.3437 16.6024 22.5004 17.3997 22.5L17.403 17.5Z" fill="#B6FFFA"/>
<path opacity="0.5" d="M33.833 63.3333H47.1663" stroke="#B6FFFA" stroke-width="4" stroke-linecap="round"/>
</svg>
