<svg width="80" height="80" viewBox="0 0 80 80" fill="none" xmlns="http://www.w3.org/2000/svg">
<path d="M39.9993 33.3333C47.3631 33.3333 53.3327 27.3638 53.3327 20C53.3327 12.6362 47.3631 6.66666 39.9993 6.66666C32.6356 6.66666 26.666 12.6362 26.666 20C26.666 27.3638 32.6356 33.3333 39.9993 33.3333Z" stroke="#B6FFFA" stroke-width="4"/>
<path opacity="0.5" d="M60 30C65.5233 30 70 26.2666 70 21.6666C70 17.0666 65.5233 13.3333 60 13.3333M20 30C14.4767 30 10 26.2666 10 21.6666C10 17.0666 14.4767 13.3333 20 13.3333" stroke="#B6FFFA" stroke-width="4" stroke-linecap="round"/>
<path d="M40 70C51.0457 70 60 64.0304 60 56.6666C60 49.3028 51.0457 43.3333 40 43.3333C28.9543 43.3333 20 49.3028 20 56.6666C20 64.0304 28.9543 70 40 70Z" stroke="#B6FFFA" stroke-width="4"/>
<path opacity="0.5" d="M66.6663 63.3333C72.513 62.05 76.6663 58.8033 76.6663 55C76.6663 51.1967 72.513 47.95 66.6663 46.6667M13.333 63.3333C7.48634 62.05 3.33301 58.8033 3.33301 55C3.33301 51.1967 7.48634 47.95 13.333 46.6667" stroke="#B6FFFA" stroke-width="4" stroke-linecap="round"/>
</svg>
