<svg width="49" height="48" viewBox="0 0 49 48" fill="none" xmlns="http://www.w3.org/2000/svg">
<path d="M4.6665 24C4.6665 16.458 4.6665 12.686 7.0105 10.344C9.3525 8 13.1245 8 20.6665 8H28.6665C36.2085 8 39.9805 8 42.3225 10.344C44.6665 12.686 44.6665 16.458 44.6665 24V28C44.6665 35.542 44.6665 39.314 42.3225 41.656C39.9805 44 36.2085 44 28.6665 44H20.6665C13.1245 44 9.3525 44 7.0105 41.656C4.6665 39.314 4.6665 35.542 4.6665 28V24Z" stroke="#B6FFFA" stroke-width="2"/>
<path opacity="0.5" d="M14.6665 8V5M34.6665 8V5M5.6665 18H43.6665" stroke="#B6FFFA" stroke-width="2" stroke-linecap="round"/>
<path d="M36.6665 34C36.6665 34.5304 36.4558 35.0391 36.0807 35.4142C35.7056 35.7893 35.1969 36 34.6665 36C34.1361 36 33.6274 35.7893 33.2523 35.4142C32.8772 35.0391 32.6665 34.5304 32.6665 34C32.6665 33.4696 32.8772 32.9609 33.2523 32.5858C33.6274 32.2107 34.1361 32 34.6665 32C35.1969 32 35.7056 32.2107 36.0807 32.5858C36.4558 32.9609 36.6665 33.4696 36.6665 34ZM36.6665 26C36.6665 26.5304 36.4558 27.0391 36.0807 27.4142C35.7056 27.7893 35.1969 28 34.6665 28C34.1361 28 33.6274 27.7893 33.2523 27.4142C32.8772 27.0391 32.6665 26.5304 32.6665 26C32.6665 25.4696 32.8772 24.9609 33.2523 24.5858C33.6274 24.2107 34.1361 24 34.6665 24C35.1969 24 35.7056 24.2107 36.0807 24.5858C36.4558 24.9609 36.6665 25.4696 36.6665 26ZM26.6665 34C26.6665 34.5304 26.4558 35.0391 26.0807 35.4142C25.7056 35.7893 25.1969 36 24.6665 36C24.1361 36 23.6274 35.7893 23.2523 35.4142C22.8772 35.0391 22.6665 34.5304 22.6665 34C22.6665 33.4696 22.8772 32.9609 23.2523 32.5858C23.6274 32.2107 24.1361 32 24.6665 32C25.1969 32 25.7056 32.2107 26.0807 32.5858C26.4558 32.9609 26.6665 33.4696 26.6665 34ZM26.6665 26C26.6665 26.5304 26.4558 27.0391 26.0807 27.4142C25.7056 27.7893 25.1969 28 24.6665 28C24.1361 28 23.6274 27.7893 23.2523 27.4142C22.8772 27.0391 22.6665 26.5304 22.6665 26C22.6665 25.4696 22.8772 24.9609 23.2523 24.5858C23.6274 24.2107 24.1361 24 24.6665 24C25.1969 24 25.7056 24.2107 26.0807 24.5858C26.4558 24.9609 26.6665 25.4696 26.6665 26ZM16.6665 34C16.6665 34.5304 16.4558 35.0391 16.0807 35.4142C15.7056 35.7893 15.1969 36 14.6665 36C14.1361 36 13.6274 35.7893 13.2523 35.4142C12.8772 35.0391 12.6665 34.5304 12.6665 34C12.6665 33.4696 12.8772 32.9609 13.2523 32.5858C13.6274 32.2107 14.1361 32 14.6665 32C15.1969 32 15.7056 32.2107 16.0807 32.5858C16.4558 32.9609 16.6665 33.4696 16.6665 34ZM16.6665 26C16.6665 26.5304 16.4558 27.0391 16.0807 27.4142C15.7056 27.7893 15.1969 28 14.6665 28C14.1361 28 13.6274 27.7893 13.2523 27.4142C12.8772 27.0391 12.6665 26.5304 12.6665 26C12.6665 25.4696 12.8772 24.9609 13.2523 24.5858C13.6274 24.2107 14.1361 24 14.6665 24C15.1969 24 15.7056 24.2107 16.0807 24.5858C16.4558 24.9609 16.6665 25.4696 16.6665 26Z" fill="#B6FFFA"/>
</svg>
