<svg width="48" height="49" viewBox="0 0 48 49" fill="none" xmlns="http://www.w3.org/2000/svg">
<path opacity="0.5" d="M4 24.5C4 15.072 4 10.358 6.928 7.428C9.86 4.5 14.572 4.5 24 4.5C33.428 4.5 38.142 4.5 41.07 7.428C44 10.36 44 15.072 44 24.5C44 33.928 44 38.642 41.07 41.57C38.144 44.5 33.428 44.5 24 44.5C14.572 44.5 9.858 44.5 6.928 41.57C4 38.644 4 33.928 4 24.5Z" stroke="#B6FFFA" stroke-width="2"/>
<path d="M14 36.5V18.5M24 36.5V12.5M34 36.5V26.5" stroke="#B6FFFA" stroke-width="2" stroke-linecap="round"/>
</svg>
