<svg width="49" height="49" viewBox="0 0 49 49" fill="none" xmlns="http://www.w3.org/2000/svg">
<path opacity="0.5" d="M4.3335 24.5C4.3335 15.072 4.3335 10.358 7.2615 7.428C10.1935 4.5 14.9055 4.5 24.3335 4.5C33.7615 4.5 38.4755 4.5 41.4035 7.428C44.3335 10.36 44.3335 15.072 44.3335 24.5C44.3335 33.928 44.3335 38.642 41.4035 41.57C38.4775 44.5 33.7615 44.5 24.3335 44.5C14.9055 44.5 10.1915 44.5 7.2615 41.57C4.3335 38.644 4.3335 33.928 4.3335 24.5Z" stroke="#B6FFFA" stroke-width="2"/>
<path d="M12.3335 32.1L14.6195 34.5L20.3335 28.5M12.3335 18.1L14.6195 20.5L20.3335 14.5" stroke="#B6FFFA" stroke-width="2" stroke-linecap="round" stroke-linejoin="round"/>
<path d="M26.3335 18.5H36.3335M26.3335 32.5H36.3335" stroke="#B6FFFA" stroke-width="2" stroke-linecap="round"/>
</svg>
