<svg width="49" height="48" viewBox="0 0 49 48" fill="none" xmlns="http://www.w3.org/2000/svg">
<path d="M31.3333 18.0001L31.6773 18.3441C34.3433 21.0101 35.6773 22.3441 35.6773 24.0001C35.6773 25.6561 34.3433 26.9901 31.6773 29.6561L31.3333 30.0001M26.9213 14.3401L24.3333 24.0001L21.7453 33.6601M17.3333 18.0001L16.9893 18.3441C14.3233 21.0101 12.9893 22.3441 12.9893 24.0001C12.9893 25.6561 14.3233 26.9901 16.9893 29.6561L17.3333 30.0001" stroke="#B6FFFA" stroke-width="2" stroke-linecap="round"/>
<path opacity="0.5" d="M4.3335 24C4.3335 14.572 4.3335 9.858 7.2615 6.928C10.1935 4 14.9055 4 24.3335 4C33.7615 4 38.4755 4 41.4035 6.928C44.3335 9.86 44.3335 14.572 44.3335 24C44.3335 33.428 44.3335 38.142 41.4035 41.07C38.4775 44 33.7615 44 24.3335 44C14.9055 44 10.1915 44 7.2615 41.07C4.3335 38.144 4.3335 33.428 4.3335 24Z" stroke="#B6FFFA" stroke-width="2"/>
</svg>
