<svg width="48" height="48" viewBox="0 0 48 48" fill="none" xmlns="http://www.w3.org/2000/svg">
<path d="M12.0181 16C12.0901 11.04 12.4581 8.23 14.3441 6.344C16.6861 4 20.4581 4 28.0001 4C35.5421 4 39.3141 4 41.6561 6.344C44.0001 8.686 44.0001 12.458 44.0001 20V28C44.0001 35.542 44.0001 39.314 41.6561 41.656C39.3141 44 35.5421 44 28.0001 44H24.0001" stroke="#B6FFFA" stroke-width="2" stroke-linecap="round"/>
<path opacity="0.5" d="M4 29C4 26.19 4 24.786 4.674 23.778C4.96591 23.3411 5.34106 22.9659 5.778 22.674C6.786 22 8.192 22 11 22C13.808 22 15.214 22 16.222 22.674C16.6589 22.9659 17.0341 23.3411 17.326 23.778C18 24.786 18 26.192 18 29V37C18 39.808 18 41.214 17.326 42.222C17.0341 42.6589 16.6589 43.0341 16.222 43.326C15.214 44 13.808 44 11 44C8.192 44 6.786 44 5.778 43.326C5.34106 43.0341 4.96591 42.6589 4.674 42.222C4 41.214 4 39.808 4 37V29Z" stroke="#B6FFFA" stroke-width="2"/>
<path opacity="0.5" d="M34 38H24" stroke="#B6FFFA" stroke-width="2" stroke-linecap="round"/>
</svg>
