<svg width="49" height="49" viewBox="0 0 49 49" fill="none" xmlns="http://www.w3.org/2000/svg">
<path d="M4.6665 28.5C4.6665 20.958 4.6665 17.186 7.0105 14.844C9.3525 12.5 13.1245 12.5 20.6665 12.5H28.6665C36.2085 12.5 39.9805 12.5 42.3225 14.844C44.6665 17.186 44.6665 20.958 44.6665 28.5C44.6665 36.042 44.6665 39.814 42.3225 42.156C39.9805 44.5 36.2085 44.5 28.6665 44.5H20.6665C13.1245 44.5 9.3525 44.5 7.0105 42.156C4.6665 39.814 4.6665 36.042 4.6665 28.5Z" stroke="#B6FFFA" stroke-width="2"/>
<path opacity="0.5" d="M32.6665 12.5C32.6665 8.728 32.6665 6.844 31.4945 5.672C30.3225 4.5 28.4385 4.5 24.6665 4.5C20.8945 4.5 19.0105 4.5 17.8385 5.672C16.6665 6.844 16.6665 8.728 16.6665 12.5" stroke="#B6FFFA" stroke-width="2"/>
<path opacity="0.5" d="M24.6665 35.166C26.8765 35.166 28.6665 33.674 28.6665 31.834C28.6665 29.994 26.8765 28.5 24.6665 28.5C22.4565 28.5 20.6665 27.008 20.6665 25.166C20.6665 23.326 22.4565 21.834 24.6665 21.834M24.6665 35.166C22.4565 35.166 20.6665 33.674 20.6665 31.834M24.6665 35.166V36.5M24.6665 21.834V20.5M24.6665 21.834C26.8765 21.834 28.6665 23.326 28.6665 25.166" stroke="#B6FFFA" stroke-width="2" stroke-linecap="round"/>
</svg>
