<svg width="700" height="1274" viewBox="0 0 700 1274" fill="none" xmlns="http://www.w3.org/2000/svg">
    <rect width="700" height="1274" fill="#d5d5d5" />
    <g clip-path="url(#clip0_958_24)">
        <rect width="700" height="9950" transform="translate(0,-8003)" fill="#0a0909" />
        <g opacity="0.05" clip-path="url(#clip1_958_24)">
            <rect x="103.8" y="-66.4" width="45.1" height="1504.9" transform="matrix(1.4,0.6,-0.2,1,-53.4,-127)"
                fill="#b6fffa" />
            <rect x="103.8" y="-66.4" width="45.1" height="1504.9" transform="matrix(1.4,0.6,-0.2,1,62.5,-127)"
                fill="#b6fffa" />
            <rect x="103.8" y="-66.4" width="45.1" height="1504.9" transform="matrix(1.4,0.6,-0.2,1,176.6,-127)"
                fill="#b6fffa" />
            <rect x="103.8" y="-66.4" width="45.1" height="1504.9" transform="matrix(1.4,0.6,-0.2,1,290.6,-127)"
                fill="#b6fffa" />
            <rect x="103.8" y="-66.4" width="45.1" height="1504.9" transform="matrix(1.4,0.6,-0.2,1,404.7,-127)"
                fill="#b6fffa" />
            <rect x="103.8" y="-66.4" width="45.1" height="1504.9" transform="matrix(1.4,0.6,-0.2,1,520.6,-127)"
                fill="#b6fffa" />
            <rect x="103.8" y="-66.4" width="45.1" height="1504.9" transform="matrix(1.4,0.6,-0.2,1,634.6,-127)"
                fill="#b6fffa" />
            <rect x="103.8" y="-66.4" width="45.1" height="1504.9" transform="matrix(1.4,0.6,-0.2,1,748.7,-127)"
                fill="#b6fffa" />
        </g>
    </g>
    <defs>
        <clipPath id="clip0_958_24">
            <rect width="700" height="9950" fill="white" transform="translate(0,-8003)" />
        </clipPath>
        <clipPath id="clip1_958_24">
            <rect width="1926.2" height="1274" fill="white" transform="translate(-783.1)" />
        </clipPath>
    </defs>
</svg>