<svg width="1440" height="558" viewBox="0 0 1440 558" fill="none" xmlns="http://www.w3.org/2000/svg">
<rect width="1440" height="558" fill="#D5D5D5"/>
<g clip-path="url(#clip0_958_24)">
<rect width="1440" height="6579" transform="translate(0 -5381)" fill="#0A0909"/>
<g opacity="0.05" clip-path="url(#clip1_958_24)">
<rect width="36.457" height="585.701" transform="matrix(0.953818 0.300386 -0.222274 0.974984 17.0303 -12)" fill="#B6FFFA"/>
<rect width="36.457" height="585.701" transform="matrix(0.953818 0.300386 -0.222274 0.974984 83.0303 -12)" fill="#B6FFFA"/>
<rect width="36.457" height="585.701" transform="matrix(0.953818 0.300386 -0.222274 0.974984 147.989 -12)" fill="#B6FFFA"/>
<rect width="36.457" height="585.701" transform="matrix(0.953818 0.300386 -0.222274 0.974984 212.949 -12)" fill="#B6FFFA"/>
<rect width="36.457" height="585.701" transform="matrix(0.953818 0.300386 -0.222274 0.974984 277.908 -12)" fill="#B6FFFA"/>
<rect width="36.457" height="585.701" transform="matrix(0.953818 0.300386 -0.222274 0.974984 343.908 -12)" fill="#B6FFFA"/>
<rect width="36.457" height="585.701" transform="matrix(0.953818 0.300386 -0.222274 0.974984 408.868 -12)" fill="#B6FFFA"/>
<rect width="36.457" height="585.701" transform="matrix(0.953818 0.300386 -0.222274 0.974984 473.828 -12)" fill="#B6FFFA"/>
<rect width="36.457" height="585.701" transform="matrix(0.953818 0.300386 -0.222274 0.974984 538.787 -12)" fill="#B6FFFA"/>
<rect width="36.457" height="585.701" transform="matrix(0.953818 0.300386 -0.222274 0.974984 604.787 -12)" fill="#B6FFFA"/>
<rect width="36.457" height="585.701" transform="matrix(0.953818 0.300386 -0.222274 0.974984 669.746 -12)" fill="#B6FFFA"/>
<rect width="36.457" height="585.701" transform="matrix(0.953818 0.300386 -0.222274 0.974984 734.706 -12)" fill="#B6FFFA"/>
<rect width="36.457" height="585.701" transform="matrix(0.953818 0.300386 -0.222274 0.974984 799.665 -12)" fill="#B6FFFA"/>
<rect width="36.457" height="585.701" transform="matrix(0.953818 0.300386 -0.222274 0.974984 865.665 -12)" fill="#B6FFFA"/>
<rect width="36.457" height="585.701" transform="matrix(0.953818 0.300386 -0.222274 0.974984 930.624 -12)" fill="#B6FFFA"/>
<rect width="36.457" height="585.701" transform="matrix(0.953818 0.300386 -0.222274 0.974984 995.584 -12)" fill="#B6FFFA"/>
<rect width="36.457" height="585.701" transform="matrix(0.953818 0.300386 -0.222274 0.974984 1060.54 -12)" fill="#B6FFFA"/>
<rect width="36.457" height="585.701" transform="matrix(0.953818 0.300386 -0.222274 0.974984 1126.54 -12)" fill="#B6FFFA"/>
<rect width="36.457" height="585.701" transform="matrix(0.953818 0.300386 -0.222274 0.974984 1191.5 -12)" fill="#B6FFFA"/>
<rect width="36.457" height="585.701" transform="matrix(0.953818 0.300386 -0.222274 0.974984 1256.46 -12)" fill="#B6FFFA"/>
<rect width="36.457" height="585.701" transform="matrix(0.953818 0.300386 -0.222274 0.974984 1321.42 -12)" fill="#B6FFFA"/>
<rect width="36.457" height="585.701" transform="matrix(0.953818 0.300386 -0.222274 0.974984 1387.42 -12)" fill="#B6FFFA"/>
<rect width="36.457" height="585.701" transform="matrix(0.953818 0.300386 -0.222274 0.974984 1452.38 -12)" fill="#B6FFFA"/>
<rect width="36.457" height="585.701" transform="matrix(0.953818 0.300386 -0.222274 0.974984 1517.34 -12)" fill="#B6FFFA"/>
</g>
</g>
<defs>
<clipPath id="clip0_958_24">
<rect width="1440" height="6579" fill="white" transform="translate(0 -5381)"/>
</clipPath>
<clipPath id="clip1_958_24">
<rect width="1926.15" height="558" fill="white" transform="translate(-243.074)"/>
</clipPath>
</defs>
</svg>
