<svg width="80" height="80" viewBox="0 0 80 80" fill="none" xmlns="http://www.w3.org/2000/svg">
<path d="M72.0297 45.2067L72.7964 37.0867C73.3964 30.7134 73.6964 27.5234 72.6031 26.2067C72.3282 25.8635 71.9877 25.5785 71.6013 25.3684C71.215 25.1583 70.7906 25.0275 70.3531 24.9834C68.7664 24.8434 66.7764 27.1101 62.7931 31.6434C60.7331 33.9901 59.7031 35.1601 58.5564 35.3434C57.916 35.4432 57.2603 35.3383 56.6831 35.0434C55.6197 34.5101 54.9164 33.0601 53.4997 30.1634L46.0431 14.8834C43.3697 9.40675 42.0331 6.66675 39.9997 6.66675C37.9664 6.66675 36.6297 9.40675 33.9564 14.8834L26.4997 30.1634C25.0864 33.0634 24.3797 34.5101 23.3164 35.0434C22.739 35.3378 22.0835 35.4428 21.4431 35.3434C20.2964 35.1601 19.2664 33.9901 17.2064 31.6434C13.2231 27.1101 11.2331 24.8434 9.64641 24.9834C9.20887 25.0275 8.78451 25.1583 8.39816 25.3684C8.01182 25.5785 7.67126 25.8635 7.39641 26.2067C6.30641 27.5234 6.60641 30.7134 7.20641 37.0867L7.96974 45.2067C9.22974 58.5801 9.85641 65.2701 13.8031 69.3001C17.7397 73.3334 23.6464 73.3334 35.4664 73.3334H44.5297C56.3464 73.3334 62.2531 73.3334 66.1964 69.3001C70.1397 65.2667 70.7697 58.5801 72.0297 45.2067Z" stroke="#B6FFFA" stroke-width="4"/>
<path opacity="0.5" d="M30 60H50" stroke="#B6FFFA" stroke-width="4" stroke-linecap="round"/>
</svg>
