<svg width="80" height="81" viewBox="0 0 80 81" fill="none" xmlns="http://www.w3.org/2000/svg">
<path opacity="0.5" d="M60.0003 20.5V36.6767C60.0003 37.6433 60.0003 38.1267 59.6837 38.3233C59.367 38.5167 58.937 38.3 58.0703 37.87L53.9303 35.7967C53.637 35.6533 53.4903 35.58 53.3337 35.58C53.177 35.58 53.0303 35.6533 52.737 35.7967L48.597 37.87C47.7303 38.3033 47.297 38.5167 46.9837 38.3233C46.667 38.1233 46.667 37.6433 46.667 36.6767V20.5" stroke="#B6FFFA" stroke-width="4"/>
<path d="M6.66699 23.6667C6.66699 20.7234 6.66699 19.2534 6.90033 18.0267C7.39774 15.3929 8.67745 12.9701 10.5725 11.0744C12.4675 9.17879 14.8899 7.89832 17.5237 7.40008C18.7537 7.16675 20.227 7.16675 23.167 7.16675C24.4537 7.16675 25.1003 7.16675 25.7203 7.22341C28.3905 7.47418 30.9229 8.52434 32.987 10.2367C33.467 10.6334 33.9203 11.0867 34.8337 12.0001L36.667 13.8334C39.387 16.5534 40.747 17.9134 42.3737 18.8167C43.2677 19.3151 44.2162 19.7088 45.2003 19.9901C46.9937 20.5001 48.917 20.5001 52.7603 20.5001H54.007C62.7803 20.5001 67.1703 20.5001 70.0203 23.0667C70.2837 23.3001 70.5337 23.5501 70.767 23.8134C73.3337 26.6634 73.3337 31.0534 73.3337 39.8267V47.1667C73.3337 59.7367 73.3337 66.0234 69.427 69.9267C65.5237 73.8334 59.237 73.8334 46.667 73.8334H33.3337C20.7637 73.8334 14.477 73.8334 10.5737 69.9267C6.66699 66.0234 6.66699 59.7367 6.66699 47.1667V23.6667Z" stroke="#B6FFFA" stroke-width="4"/>
</svg>
