<svg width="80" height="81" viewBox="0 0 80 81" fill="none" xmlns="http://www.w3.org/2000/svg">
<path opacity="0.5" d="M73.3337 63.8334H46.667M6.66699 63.8334H33.3337M40.0003 57.1667V47.1667" stroke="#B6FFFA" stroke-width="4" stroke-linecap="round"/>
<path d="M40.0007 70.5001C43.6825 70.5001 46.6673 67.5153 46.6673 63.8334C46.6673 60.1515 43.6825 57.1667 40.0007 57.1667C36.3188 57.1667 33.334 60.1515 33.334 63.8334C33.334 67.5153 36.3188 70.5001 40.0007 70.5001Z" stroke="#B6FFFA" stroke-width="4"/>
<path d="M16.667 27.1667C14.0148 27.1667 11.4713 28.2203 9.59592 30.0957C7.72056 31.971 6.66699 34.5146 6.66699 37.1667C6.66699 39.8189 7.72056 42.3625 9.59592 44.2378C11.4713 46.1132 14.0148 47.1667 16.667 47.1667H63.3337C64.6469 47.1667 65.9472 46.9081 67.1605 46.4055C68.3737 45.903 69.4761 45.1664 70.4047 44.2378C71.3333 43.3092 72.0699 42.2068 72.5725 40.9936C73.075 39.7803 73.3337 38.48 73.3337 37.1667C73.3337 35.8535 73.075 34.5532 72.5725 33.3399C72.0699 32.1267 71.3333 31.0243 70.4047 30.0957C69.4761 29.1671 68.3737 28.4305 67.1605 27.928C65.9472 27.4254 64.6469 27.1667 63.3337 27.1667M16.667 27.1667H63.3337M16.667 27.1667C14.0148 27.1667 11.4713 26.1132 9.59592 24.2378C7.72056 22.3625 6.66699 19.8189 6.66699 17.1667C6.66699 14.5146 7.72056 11.971 9.59592 10.0957C11.4713 8.22032 14.0148 7.16675 16.667 7.16675H63.3337C65.9858 7.16675 68.5294 8.22032 70.4047 10.0957C72.2801 11.971 73.3337 14.5146 73.3337 17.1667C73.3337 19.8189 72.2801 22.3625 70.4047 24.2378C68.5294 26.1132 65.9858 27.1667 63.3337 27.1667" stroke="#B6FFFA" stroke-width="4"/>
<path opacity="0.5" d="M43.334 17.1667H63.334M43.334 37.1667H63.334" stroke="#B6FFFA" stroke-width="4" stroke-linecap="round"/>
<path opacity="0.5" d="M20.0003 20.5002C21.8413 20.5002 23.3337 19.0078 23.3337 17.1668C23.3337 15.3259 21.8413 13.8335 20.0003 13.8335C18.1594 13.8335 16.667 15.3259 16.667 17.1668C16.667 19.0078 18.1594 20.5002 20.0003 20.5002Z" fill="#B6FFFA"/>
<path opacity="0.5" d="M20.0003 40.5002C21.8413 40.5002 23.3337 39.0078 23.3337 37.1668C23.3337 35.3259 21.8413 33.8335 20.0003 33.8335C18.1594 33.8335 16.667 35.3259 16.667 37.1668C16.667 39.0078 18.1594 40.5002 20.0003 40.5002Z" fill="#B6FFFA"/>
</svg>
