<svg width="80" height="80" viewBox="0 0 80 80" fill="none" xmlns="http://www.w3.org/2000/svg">
<path opacity="0.5" d="M73.3337 46.6601C73.237 58.0401 72.607 64.3134 68.467 68.4501C63.587 73.3334 55.727 73.3334 40.0103 73.3334C24.2903 73.3334 16.4337 73.3334 11.5503 68.4501C6.66699 63.5667 6.66699 55.7101 6.66699 39.9901C6.66699 24.2734 6.66699 16.4134 11.5503 11.5334C15.687 7.39341 21.9603 6.76341 33.3403 6.66675" stroke="#B6FFFA" stroke-width="4" stroke-linecap="round"/>
<path d="M73.3333 23.3334H46.6667C40.6067 23.3334 36.9567 26.3067 35.6 27.6667C35.1833 28.0901 34.9733 28.3001 34.9667 28.3001C34.9667 28.3067 34.7567 28.5167 34.3333 28.9334C32.9733 30.2901 30 33.9401 30 40.0001V50.0001M73.3333 23.3334L56.6667 6.66675M73.3333 23.3334L56.6667 40.0001" stroke="#B6FFFA" stroke-width="4" stroke-linecap="round" stroke-linejoin="round"/>
</svg>
