<svg width="80" height="81" viewBox="0 0 80 81" fill="none" xmlns="http://www.w3.org/2000/svg">
<path d="M40.0003 33.8334C47.3641 33.8334 53.3337 27.8639 53.3337 20.5001C53.3337 13.1363 47.3641 7.16675 40.0003 7.16675C32.6365 7.16675 26.667 13.1363 26.667 20.5001C26.667 27.8639 32.6365 33.8334 40.0003 33.8334Z" stroke="#B6FFFA" stroke-width="4"/>
<path d="M56.6673 73.8334C64.0311 73.8334 70.0007 67.8639 70.0007 60.5001C70.0007 53.1363 64.0311 47.1667 56.6673 47.1667C49.3035 47.1667 43.334 53.1363 43.334 60.5001C43.334 67.8639 49.3035 73.8334 56.6673 73.8334Z" stroke="#B6FFFA" stroke-width="4"/>
<path d="M56.6674 56.0566V64.9433M52.2207 60.5H61.1107" stroke="#B6FFFA" stroke-width="4" stroke-linecap="round" stroke-linejoin="round"/>
<path opacity="0.5" d="M46.667 69.9468C44.5537 70.3068 42.317 70.5002 40.0003 70.5002C27.1137 70.5002 16.667 64.5335 16.667 57.1668C16.667 49.8002 27.1137 43.8335 40.0003 43.8335C45.7103 43.8335 50.9437 45.0068 55.0003 46.9535" stroke="#B6FFFA" stroke-width="4"/>
</svg>
