<svg width="80" height="81" viewBox="0 0 80 81" fill="none" xmlns="http://www.w3.org/2000/svg">
<path d="M18.334 52.1668C18.334 49.0235 18.334 47.4535 19.3107 46.4768C20.2873 45.5002 21.8573 45.5002 25.0007 45.5002H28.334C31.4773 45.5002 33.0473 45.5002 34.024 46.4768C35.0006 47.4535 35.0007 49.0235 35.0007 52.1668V55.5002C35.0007 58.6435 35.0006 60.2135 34.024 61.1902C33.0473 62.1668 31.4773 62.1668 28.334 62.1668C23.6207 62.1668 21.264 62.1668 19.8007 60.7002C18.334 59.2368 18.334 56.8802 18.334 52.1668ZM18.334 28.8335C18.334 24.1202 18.334 21.7635 19.8007 20.3002C21.264 18.8335 23.6207 18.8335 28.334 18.8335C31.4773 18.8335 33.0473 18.8335 34.024 19.8102C35.0006 20.7868 35.0007 22.3568 35.0007 25.5002V28.8335C35.0007 31.9768 35.0006 33.5468 34.024 34.5235C33.0473 35.5002 31.4773 35.5002 28.334 35.5002H25.0007C21.8573 35.5002 20.2873 35.5002 19.3107 34.5235C18.334 33.5468 18.334 31.9768 18.334 28.8335ZM45.0007 52.1668C45.0007 49.0235 45.0007 47.4535 45.9773 46.4768C46.954 45.5002 48.524 45.5002 51.6673 45.5002H55.0007C58.144 45.5002 59.714 45.5002 60.6907 46.4768C61.6673 47.4535 61.6673 49.0235 61.6673 52.1668C61.6673 56.8802 61.6673 59.2368 60.2006 60.7002C58.7373 62.1668 56.3807 62.1668 51.6673 62.1668C48.524 62.1668 46.954 62.1668 45.9773 61.1902C45.0007 60.2135 45.0007 58.6435 45.0007 55.5002V52.1668ZM45.0007 25.5002C45.0007 22.3568 45.0007 20.7868 45.9773 19.8102C46.954 18.8335 48.524 18.8335 51.6673 18.8335C56.3807 18.8335 58.7373 18.8335 60.2006 20.3002C61.6673 21.7635 61.6673 24.1202 61.6673 28.8335C61.6673 31.9768 61.6673 33.5468 60.6907 34.5235C59.714 35.5002 58.144 35.5002 55.0007 35.5002H51.6673C48.524 35.5002 46.954 35.5002 45.9773 34.5235C45.0007 33.5468 45.0007 31.9768 45.0007 28.8335V25.5002Z" stroke="#B6FFFA" stroke-width="4"/>
<path opacity="0.5" d="M73.3337 47.1667C73.3337 59.7367 73.3337 66.0234 69.427 69.9267C65.5237 73.8334 59.237 73.8334 46.667 73.8334M33.3337 73.8334C20.7637 73.8334 14.477 73.8334 10.5737 69.9267C6.66699 66.0234 6.66699 59.7367 6.66699 47.1667M33.3337 7.16675C20.7637 7.16675 14.477 7.16675 10.5737 11.0734C6.66699 14.9767 6.66699 21.2634 6.66699 33.8334M46.667 7.16675C59.237 7.16675 65.5237 7.16675 69.427 11.0734C73.3337 14.9767 73.3337 21.2634 73.3337 33.8334" stroke="#B6FFFA" stroke-width="4" stroke-linecap="round"/>
</svg>
