<svg width="80" height="80" viewBox="0 0 80 80" fill="none" xmlns="http://www.w3.org/2000/svg">
<path d="M30.7102 33.9134L37.4268 28.5634C41.7668 25.1067 43.9368 23.3767 45.3035 24.2301C46.6702 25.0834 45.9602 27.7301 44.5435 33.0167L44.4102 33.5167C43.8968 35.4234 43.6435 36.3767 44.0902 37.1367L44.1135 37.1767C44.5802 37.9301 45.5735 38.1967 47.5568 38.7267C51.1302 39.6834 52.9168 40.1601 53.2302 41.4067C53.2349 41.4278 53.2394 41.4489 53.2435 41.4701C53.5202 42.7234 52.1102 43.8434 49.2935 46.0901L42.5768 51.4367C38.2335 54.8967 36.0635 56.6234 34.6968 55.7701C33.3335 54.9168 34.0435 52.2701 35.4602 46.9834L35.5935 46.4834C36.1035 44.5801 36.3602 43.6267 35.9102 42.8634L35.8868 42.8234C35.4202 42.0734 34.4268 41.8067 32.4435 41.2734C28.8702 40.3167 27.0835 39.8401 26.7702 38.5934C26.7654 38.5724 26.761 38.5513 26.7568 38.5301C26.4802 37.2801 27.8902 36.1567 30.7102 33.9134Z" stroke="#B6FFFA" stroke-width="4"/>
<path opacity="0.5" d="M6.66699 40.0001C6.66699 21.5901 21.5903 6.66675 40.0003 6.66675C58.4103 6.66675 73.3337 21.5901 73.3337 40.0001C73.3337 58.4101 58.4103 73.3334 40.0003 73.3334C21.5903 73.3334 6.66699 58.4101 6.66699 40.0001Z" stroke="#B6FFFA" stroke-width="4"/>
</svg>
