<svg width="80" height="80" viewBox="0 0 80 80" fill="none" xmlns="http://www.w3.org/2000/svg">
<path d="M40.0001 53.3332C20.8001 53.3332 17.4001 34.1999 16.8001 19.0199C16.6301 14.7999 16.5467 12.6866 18.1334 10.7366C19.7167 8.78322 21.6134 8.46322 25.4101 7.82322C30.2328 7.03281 35.113 6.64591 40.0001 6.66656C45.9467 6.66656 50.8434 7.18989 54.5901 7.82322C58.3867 8.46322 60.2834 8.78322 61.8701 10.7366C63.4567 12.6899 63.3701 14.7999 63.2034 19.0199C62.6034 34.1966 59.2034 53.3332 40.0034 53.3332H40.0001Z" stroke="#B6FFFA" stroke-width="4"/>
<path opacity="0.5" d="M40 53.3333V63.3333" stroke="#B6FFFA" stroke-width="4" stroke-linecap="round"/>
<path d="M51.6663 73.3333H28.333L29.4663 67.68C29.6173 66.9246 30.0253 66.2449 30.6208 65.7563C31.2163 65.2677 31.9627 65.0005 32.733 65H47.2663C48.0367 65.0005 48.783 65.2677 49.3786 65.7563C49.9741 66.2449 50.382 66.9246 50.533 67.68L51.6663 73.3333Z" stroke="#B6FFFA" stroke-width="4" stroke-linecap="round" stroke-linejoin="round"/>
<path opacity="0.5" d="M63.3332 16.6665L66.4965 17.7198C69.7965 18.8198 71.4465 19.3698 72.3898 20.6798C73.3332 21.9898 73.3332 23.7298 73.3332 27.2065V27.4498C73.3332 30.3165 73.3332 31.7532 72.6432 32.9265C71.9532 34.0998 70.6965 34.7965 68.1898 36.1932L58.3332 41.6665M16.6665 16.6665L13.5032 17.7198C10.2032 18.8198 8.55317 19.3698 7.60984 20.6798C6.6665 21.9898 6.6665 23.7332 6.6665 27.2065V27.4498C6.6665 30.3165 6.6665 31.7532 7.3565 32.9265C8.0465 34.0998 9.30317 34.7965 11.8098 36.1932L21.6665 41.6665" stroke="#B6FFFA" stroke-width="4"/>
<path d="M37.1533 20.0765C38.42 17.7998 39.0533 16.6665 40 16.6665C40.9466 16.6665 41.58 17.7998 42.8466 20.0765L43.1733 20.6632C43.5333 21.3098 43.7133 21.6298 43.9933 21.8432C44.2766 22.0565 44.6266 22.1365 45.3266 22.2932L45.96 22.4398C48.42 22.9965 49.65 23.2732 49.9433 24.2132C50.2366 25.1565 49.3966 26.1365 47.72 28.0965L47.2866 28.6032C46.81 29.1598 46.57 29.4365 46.4633 29.7832C46.3566 30.1298 46.3933 30.4998 46.4633 31.2432L46.53 31.9198C46.7833 34.5365 46.91 35.8465 46.1466 36.4265C45.38 37.0065 44.2266 36.4765 41.9233 35.4165L41.33 35.1432C40.6733 34.8432 40.3466 34.6932 40 34.6932C39.6533 34.6932 39.3266 34.8432 38.67 35.1432L38.0766 35.4165C35.7733 36.4798 34.62 37.0065 33.8533 36.4265C33.0866 35.8465 33.2166 34.5365 33.47 31.9198L33.5366 31.2432C33.6066 30.4998 33.6433 30.1298 33.5366 29.7832C33.43 29.4398 33.19 29.1598 32.7133 28.6032L32.28 28.0965C30.6033 26.1365 29.7633 25.1565 30.0566 24.2132C30.35 23.2732 31.58 22.9965 34.04 22.4398L34.6733 22.2932C35.3733 22.1365 35.7233 22.0598 36.0066 21.8432C36.2866 21.6298 36.4666 21.3098 36.8266 20.6632L37.1533 20.0765Z" stroke="#B6FFFA" stroke-width="4"/>
<path opacity="0.5" d="M60 73.3333H20" stroke="#B6FFFA" stroke-width="4" stroke-linecap="round"/>
</svg>
