<svg width="81" height="80" viewBox="0 0 81 80" fill="none" xmlns="http://www.w3.org/2000/svg">
<path d="M7 23.1667C7 20.2234 7 18.7534 7.23333 17.5267C7.73075 14.8929 9.01046 12.4701 10.9055 10.5744C12.8006 8.67879 15.223 7.39832 17.8567 6.90008C19.0867 6.66675 20.56 6.66675 23.5 6.66675C24.7867 6.66675 25.4333 6.66675 26.0533 6.72341C28.7235 6.97418 31.256 8.02434 33.32 9.73675C33.8 10.1334 34.2533 10.5867 35.1667 11.5001L37 13.3334C39.72 16.0534 41.08 17.4134 42.7067 18.3167C43.6007 18.8151 44.5492 19.2088 45.5333 19.4901C47.3267 20.0001 49.25 20.0001 53.0933 20.0001H54.34C63.1133 20.0001 67.5033 20.0001 70.3533 22.5667C70.6167 22.8001 70.8667 23.0501 71.1 23.3134C73.6667 26.1634 73.6667 30.5534 73.6667 39.3267V46.6667C73.6667 59.2367 73.6667 65.5234 69.76 69.4267C65.8567 73.3334 59.57 73.3334 47 73.3334H33.6667C21.0967 73.3334 14.81 73.3334 10.9067 69.4267C7 65.5234 7 59.2367 7 46.6667V23.1667Z" stroke="#B6FFFA" stroke-width="4"/>
<path opacity="0.5" d="M40.3332 50.0001C42.1013 50.0001 43.797 49.2977 45.0472 48.0475C46.2975 46.7972 46.9998 45.1015 46.9998 43.3334C46.9998 41.5653 46.2975 39.8696 45.0472 38.6194C43.797 37.3691 42.1013 36.6667 40.3332 36.6667C38.5651 36.6667 36.8694 37.3691 35.6191 38.6194C34.3689 39.8696 33.6665 41.5653 33.6665 43.3334C33.6665 45.1015 34.3689 46.7972 35.6191 48.0475C36.8694 49.2977 38.5651 50.0001 40.3332 50.0001ZM40.3332 50.0001V58.3334" stroke="#B6FFFA" stroke-width="4" stroke-linecap="round"/>
</svg>
