<svg width="81" height="80" viewBox="0 0 81 80" fill="none" xmlns="http://www.w3.org/2000/svg">
<path d="M40.6668 33.3334C48.0306 33.3334 54.0002 27.3639 54.0002 20.0001C54.0002 12.6363 48.0306 6.66675 40.6668 6.66675C33.303 6.66675 27.3335 12.6363 27.3335 20.0001C27.3335 27.3639 33.303 33.3334 40.6668 33.3334Z" stroke="#B6FFFA" stroke-width="4"/>
<path opacity="0.5" d="M60.6665 30.0002C66.1898 30.0002 70.6665 26.2668 70.6665 21.6668C70.6665 17.0668 66.1898 13.3335 60.6665 13.3335M20.6665 30.0002C15.1432 30.0002 10.6665 26.2668 10.6665 21.6668C10.6665 17.0668 15.1432 13.3335 20.6665 13.3335" stroke="#B6FFFA" stroke-width="4" stroke-linecap="round"/>
<path d="M40.6665 70.0002C51.7122 70.0002 60.6665 64.0306 60.6665 56.6668C60.6665 49.303 51.7122 43.3335 40.6665 43.3335C29.6208 43.3335 20.6665 49.303 20.6665 56.6668C20.6665 64.0306 29.6208 70.0002 40.6665 70.0002Z" stroke="#B6FFFA" stroke-width="4"/>
<path opacity="0.5" d="M67.3333 63.3334C73.18 62.0501 77.3333 58.8034 77.3333 55.0001C77.3333 51.1967 73.18 47.9501 67.3333 46.6667M14 63.3334C8.15333 62.0501 4 58.8034 4 55.0001C4 51.1967 8.15333 47.9501 14 46.6667" stroke="#B6FFFA" stroke-width="4" stroke-linecap="round"/>
</svg>
