<svg width="225" height="360" viewBox="0 0 225 360" fill="none" xmlns="http://www.w3.org/2000/svg">
<rect width="225" height="360" fill="#D5D5D5"/>
<g clip-path="url(#clip0_958_24)">
<rect width="1440" height="6952" transform="translate(-1115 -2770)" fill="#0A0909"/>
<g filter="url(#filter0_d_958_24)">
</g>
<g clip-path="url(#clip1_958_24)">
<rect width="615" height="440" transform="translate(-390 -40)" fill="white" fill-opacity="0.05"/>
<g opacity="0.2">
<path opacity="0.5" d="M180 330C262.843 330 330 262.843 330 180C330 97.1573 262.843 30 180 30C97.1573 30 30 97.1573 30 180C30 262.843 97.1573 330 180 330Z" stroke="#B6FFFA" stroke-width="20"/>
<path d="M120 180L150 157.5L120 135M240 180L210 157.5L240 135M225 240L210 225L195 240L180 225L165 240L150 225L135 240" stroke="#B6FFFA" stroke-width="20" stroke-linecap="round" stroke-linejoin="round"/>
</g>
</g>
</g>
<defs>
<filter id="filter0_d_958_24" x="-470" y="330" width="775" height="1070" filterUnits="userSpaceOnUse" color-interpolation-filters="sRGB">
<feFlood flood-opacity="0" result="BackgroundImageFix"/>
<feColorMatrix in="SourceAlpha" type="matrix" values="0 0 0 0 0 0 0 0 0 0 0 0 0 0 0 0 0 0 127 0" result="hardAlpha"/>
<feOffset/>
<feGaussianBlur stdDeviation="40"/>
<feComposite in2="hardAlpha" operator="out"/>
<feColorMatrix type="matrix" values="0 0 0 0 0 0 0 0 0 0 0 0 0 0 0 0 0 0 0.05 0"/>
<feBlend mode="normal" in2="BackgroundImageFix" result="effect1_dropShadow_958_24"/>
<feBlend mode="normal" in="SourceGraphic" in2="effect1_dropShadow_958_24" result="shape"/>
</filter>
<clipPath id="clip0_958_24">
<rect width="1440" height="6952" fill="white" transform="translate(-1115 -2770)"/>
</clipPath>
<clipPath id="clip1_958_24">
<rect width="615" height="440" fill="white" transform="translate(-390 -40)"/>
</clipPath>
</defs>
</svg>
