<svg width="245" height="360" viewBox="0 0 245 360" fill="none" xmlns="http://www.w3.org/2000/svg">
<rect width="245" height="360" fill="#D5D5D5"/>
<g clip-path="url(#clip0_958_24)">
<rect width="1440" height="6952" transform="translate(-470 -3225)" fill="#0A0909"/>
<g clip-path="url(#clip1_958_24)">
<rect width="615" height="450" transform="translate(-370 -45)" fill="white" fill-opacity="0.05"/>
<g opacity="0.2">
<path d="M225 150C191.863 150 165 123.137 165 90C165 56.8629 191.863 30 225 30C258.137 30 285 56.8629 285 90C285 123.137 258.137 150 225 150Z" stroke="#B6FFFA" stroke-width="20"/>
<path opacity="0.5" d="M172.5 65.115C167.155 57.0615 159.358 50.9432 150.265 47.6657C141.172 44.3883 131.265 44.126 122.011 46.9176C112.756 49.7092 104.647 55.4063 98.8832 63.1656C93.1192 70.925 90.0068 80.334 90.0068 90C90.0068 99.666 93.1192 109.075 98.8832 116.834C104.647 124.594 112.756 130.291 122.011 133.082C131.265 135.874 141.172 135.612 150.265 132.334C159.358 129.057 167.155 122.938 172.5 114.885" stroke="#B6FFFA" stroke-width="20"/>
<path d="M225 315C167.01 315 120 288.137 120 255C120 221.863 167.01 195 225 195C282.99 195 330 221.863 330 255C330 288.137 282.99 315 225 315Z" stroke="#B6FFFA" stroke-width="20"/>
<path opacity="0.5" d="M90 210C63.69 215.775 45 230.385 45 247.5C45 262.95 60.21 276.345 82.5 283.05" stroke="#B6FFFA" stroke-width="20" stroke-linecap="round"/>
</g>
</g>
<g filter="url(#filter0_d_958_24)">
</g>
</g>
<defs>
<filter id="filter0_d_958_24" x="175" y="-125" width="775" height="1070" filterUnits="userSpaceOnUse" color-interpolation-filters="sRGB">
<feFlood flood-opacity="0" result="BackgroundImageFix"/>
<feColorMatrix in="SourceAlpha" type="matrix" values="0 0 0 0 0 0 0 0 0 0 0 0 0 0 0 0 0 0 127 0" result="hardAlpha"/>
<feOffset/>
<feGaussianBlur stdDeviation="40"/>
<feComposite in2="hardAlpha" operator="out"/>
<feColorMatrix type="matrix" values="0 0 0 0 0 0 0 0 0 0 0 0 0 0 0 0 0 0 0.05 0"/>
<feBlend mode="normal" in2="BackgroundImageFix" result="effect1_dropShadow_958_24"/>
<feBlend mode="normal" in="SourceGraphic" in2="effect1_dropShadow_958_24" result="shape"/>
</filter>
<clipPath id="clip0_958_24">
<rect width="1440" height="6952" fill="white" transform="translate(-470 -3225)"/>
</clipPath>
<clipPath id="clip1_958_24">
<rect width="615" height="450" fill="white" transform="translate(-370 -45)"/>
</clipPath>
</defs>
</svg>
