<svg width="25" height="24" viewBox="0 0 25 24" fill="none" xmlns="http://www.w3.org/2000/svg">
<path d="M16.5 14.046V11.549C16.5 9.404 16.5 8.332 15.914 7.666C15.328 7 14.386 7 12.5 7C10.614 7 9.672 7 9.086 7.666C8.5 8.332 8.5 9.404 8.5 11.55V14.047C8.5 15.595 8.5 16.369 8.826 16.707C8.97472 16.865 9.17304 16.9674 9.388 16.997C9.826 17.053 10.338 16.544 11.363 15.524C11.816 15.074 12.043 14.848 12.305 14.788C12.4334 14.7589 12.5666 14.7589 12.695 14.788C12.957 14.848 13.184 15.073 13.637 15.524C14.661 16.544 15.174 17.054 15.613 16.997C15.8272 16.9669 16.0248 16.8646 16.173 16.707C16.5 16.369 16.5 15.595 16.5 14.047V14.046Z" stroke="#B6FFFA" stroke-width="1.5"/>
<path d="M22.5 12C22.5 17.523 18.023 22 12.5 22C6.977 22 2.5 17.523 2.5 12C2.5 6.477 6.977 2 12.5 2C18.023 2 22.5 6.477 22.5 12Z" stroke="#B6FFFA" stroke-width="1.5"/>
</svg>
