<svg width="25" height="24" viewBox="0 0 25 24" fill="none" xmlns="http://www.w3.org/2000/svg">
<path d="M12.5 22C18.023 22 22.5 17.523 22.5 12C22.5 6.477 18.023 2 12.5 2C6.977 2 2.5 6.477 2.5 12C2.5 13.6 2.876 15.112 3.543 16.453C3.721 16.809 3.78 17.216 3.677 17.601L3.082 19.827C3.02329 20.0472 3.02351 20.279 3.08264 20.4991C3.14177 20.7192 3.25773 20.9199 3.41889 21.0811C3.58005 21.2423 3.78075 21.3582 4.00087 21.4174C4.22098 21.4765 4.45277 21.4767 4.673 21.418L6.899 20.823C7.28541 20.7258 7.69403 20.7731 8.048 20.956C9.43092 21.6446 10.9551 22.0021 12.5 22Z" stroke="#B6FFFA" stroke-width="1.5"/>
<path d="M8.5 10.5H16.5M8.5 14H14" stroke="#B6FFFA" stroke-width="1.5" stroke-linecap="round"/>
</svg>
