<svg width="25" height="24" viewBox="0 0 25 24" fill="none" xmlns="http://www.w3.org/2000/svg">
<path d="M12.5 2.00001C6.977 2.00001 2.5 6.47701 2.5 12C2.50113 14.1963 3.22452 16.3312 4.55869 18.0757C5.89285 19.8203 7.76374 21.0776 9.883 21.654C10.7362 21.8846 11.6162 22.0009 12.5 22C17.379 22 21.441 18.506 22.323 13.884C22.439 13.274 22.5 12.644 22.5 12C22.5015 10.5154 22.1718 9.04909 21.5348 7.70803C20.8978 6.36697 19.9697 5.18491 18.818 4.24801C17.0352 2.79084 14.8025 1.99644 12.5 2.00001Z" stroke="#B6FFFA" stroke-width="1.5"/>
<path d="M2.58496 13.312C3.70871 12.9331 4.91956 12.8957 6.06456 13.2045C7.20956 13.5133 8.23737 14.1546 9.01817 15.0472C9.79897 15.9398 10.2977 17.0438 10.4515 18.2197C10.6052 19.3956 10.407 20.5907 9.88196 21.654M22.323 13.885C21.3129 13.6826 20.372 13.2236 19.5908 12.5522C18.8095 11.8808 18.2142 11.0197 17.8621 10.0516C17.51 9.08352 17.413 8.04112 17.5804 7.0247C17.7478 6.00829 18.174 5.05206 18.818 4.24805M16.5 16C16.5 16.2653 16.3946 16.5196 16.2071 16.7072C16.0195 16.8947 15.7652 17 15.5 17C15.2347 17 14.9804 16.8947 14.7929 16.7072C14.6053 16.5196 14.5 16.2653 14.5 16C14.5 15.7348 14.6053 15.4805 14.7929 15.2929C14.9804 15.1054 15.2347 15 15.5 15C15.7652 15 16.0195 15.1054 16.2071 15.2929C16.3946 15.4805 16.5 15.7348 16.5 16ZM13.5 8.50005C13.5 9.16309 13.2366 9.79897 12.7677 10.2678C12.2989 10.7367 11.663 11 11 11C10.3369 11 9.70103 10.7367 9.23219 10.2678C8.76335 9.79897 8.49996 9.16309 8.49996 8.50005C8.49996 7.83701 8.76335 7.20112 9.23219 6.73228C9.70103 6.26344 10.3369 6.00005 11 6.00005C11.663 6.00005 12.2989 6.26344 12.7677 6.73228C13.2366 7.20112 13.5 7.83701 13.5 8.50005Z" stroke="#B6FFFA" stroke-width="1.5"/>
</svg>
