<svg width="25" height="24" viewBox="0 0 25 24" fill="none" xmlns="http://www.w3.org/2000/svg">
<path d="M12.5 22C18.023 22 22.5 17.523 22.5 12C22.5 6.477 18.023 2 12.5 2C6.977 2 2.5 6.477 2.5 12C2.5 13.6 2.876 15.112 3.543 16.453C3.721 16.809 3.78 17.216 3.677 17.601L3.082 19.827C3.02329 20.0472 3.02351 20.279 3.08264 20.4991C3.14177 20.7192 3.25773 20.9199 3.41889 21.0811C3.58005 21.2423 3.78075 21.3582 4.00087 21.4174C4.22098 21.4765 4.45277 21.4767 4.673 21.418L6.899 20.823C7.28541 20.7258 7.69403 20.7731 8.048 20.956C9.43092 21.6446 10.9551 22.0021 12.5 22Z" stroke="#B6FFFA" stroke-width="1.5"/>
<path d="M12.5 9.50006L11.964 10.0241C12.0338 10.0954 12.1172 10.1521 12.2093 10.1908C12.3013 10.2295 12.4002 10.2495 12.5 10.2495C12.5998 10.2495 12.6987 10.2295 12.7907 10.1908C12.8828 10.1521 12.9662 10.0954 13.036 10.0241L12.5 9.50106V9.50006ZM11.014 14.3711C10.433 13.8771 9.849 13.3031 9.416 12.7111C8.975 12.1061 8.75 11.5621 8.75 11.1091H7.25C7.25 12.0251 7.685 12.8831 8.205 13.5951C8.734 14.3201 9.415 14.9791 10.043 15.5141L11.015 14.3711H11.014ZM8.75 11.1091C8.75 10.0021 9.245 9.42006 9.753 9.22906C10.271 9.03606 11.095 9.13906 11.964 10.0261L13.036 8.97706C11.88 7.79706 10.455 7.36506 9.228 7.82406C7.993 8.28606 7.25 9.54006 7.25 11.1091H8.75ZM14.957 15.5151C15.585 14.9811 16.266 14.3211 16.795 13.5971C17.315 12.8841 17.75 12.0261 17.75 11.1101H16.25C16.25 11.5631 16.025 12.1071 15.584 12.7121C15.151 13.3051 14.567 13.8781 13.986 14.3721L14.957 15.5151ZM17.75 11.1101C17.75 9.54006 17.007 8.28606 15.772 7.82406C14.545 7.36506 13.12 7.79606 11.964 8.97706L13.036 10.0271C13.905 9.13906 14.73 9.03606 15.246 9.22906C15.756 9.41906 16.25 10.0031 16.25 11.1101H17.75ZM10.043 15.5151C10.823 16.1781 11.443 16.7451 12.5 16.7451V15.2451C12.086 15.2451 11.883 15.1101 11.014 14.3711L10.043 15.5151ZM13.986 14.3721C13.117 15.1111 12.914 15.2451 12.5 15.2451V16.7451C13.557 16.7451 14.178 16.1781 14.957 15.5151L13.985 14.3721H13.986Z" fill="#B6FFFA"/>
</svg>
