<svg width="25" height="24" viewBox="0 0 25 24" fill="none" xmlns="http://www.w3.org/2000/svg">
<path d="M12.5 22C18.0228 22 22.5 17.5228 22.5 12C22.5 6.47715 18.0228 2 12.5 2C6.97715 2 2.5 6.47715 2.5 12C2.5 17.5228 6.97715 22 12.5 22Z" stroke="#B6FFFA" stroke-width="1.5"/>
<path d="M12.5 16C14.7091 16 16.5 14.2091 16.5 12C16.5 9.79086 14.7091 8 12.5 8C10.2909 8 8.5 9.79086 8.5 12C8.5 14.2091 10.2909 16 12.5 16Z" stroke="#B6FFFA" stroke-width="1.5"/>
<path d="M15.5 9L19.5 5M5.5 19L9.5 15M9.5 9L5.5 5M19.5 19L15.5 15" stroke="#B6FFFA" stroke-width="1.5"/>
</svg>
