<svg width="80" height="80" viewBox="0 0 80 80" fill="none" xmlns="http://www.w3.org/2000/svg">
<path d="M38.828 79.6858L6.2168 60.8577C5.49164 60.4391 5.04492 59.6653 5.04492 58.828V21.1718C5.04492 20.3344 5.49164 19.5607 6.2168 19.1421L38.828 0.313945C39.5532 -0.104648 40.4466 -0.104648 41.1718 0.313945L73.7831 19.1421C74.5082 19.5607 74.9549 20.3344 74.9549 21.1718V58.828C74.9549 59.6653 74.5082 60.4391 73.7831 60.8577L41.1718 79.6858C40.4466 80.1044 39.5532 80.1044 38.828 79.6858Z" fill="url(#paint0_linear_1023_11908)"/>
<path d="M38.8281 68.7036L25.2956 60.8911C24.1747 60.2439 23.7905 58.8104 24.4377 57.6895C25.0848 56.5686 26.5183 56.1843 27.6392 56.8315L40 63.9675L52.3606 56.8315C53.4816 56.1843 54.915 56.5684 55.5622 57.6895C56.2094 58.8104 55.8253 60.2439 54.7042 60.8911L41.1717 68.7036C40.4467 69.1223 39.5533 69.1223 38.8281 68.7036ZM55.5622 22.3104C56.2094 21.1895 55.8253 19.7561 54.7042 19.1089L41.1717 11.2964C40.4466 10.8778 39.5533 10.8778 38.8281 11.2964L25.2956 19.1089C24.1747 19.7561 23.7905 21.1895 24.4377 22.3104C25.0848 23.4314 26.5183 23.8156 27.6392 23.1684L40 16.0323L52.3606 23.1682C53.4816 23.8154 54.915 23.4314 55.5622 22.3104ZM29.5036 28.2812C28.2092 28.2937 27.17 29.3531 27.1825 30.6475L27.2931 42.0739L18.4911 29.3281C17.1845 27.4362 14.2188 28.3607 14.2188 30.66V49.375C14.2188 50.6693 15.2681 51.7187 16.5625 51.7187C17.8569 51.7187 18.9062 50.6693 18.9062 49.375V38.1784L27.2886 50.3167C27.9775 51.3115 29.1263 51.7343 30.2153 51.3943C31.3267 51.047 32.045 50.0064 32.045 48.7431L31.8697 30.6023C31.8573 29.3079 30.798 28.2687 29.5036 28.2812ZM45.2558 32.9687C46.5502 32.9687 47.5995 31.9193 47.5995 30.625C47.5995 29.3306 46.5502 28.2812 45.2558 28.2812H37.6562C36.3619 28.2812 35.3125 29.3306 35.3125 30.625V49.375C35.3125 50.6693 36.3619 51.7187 37.6562 51.7187C38.9506 51.7187 40 50.6693 40 49.375V42.1662H44.6519C45.9463 42.1662 46.9956 41.1168 46.9956 39.8225C46.9956 38.5281 45.9463 37.4787 44.6519 37.4787H40V32.9687H45.2558ZM63.4375 28.2812H53.0827C51.7883 28.2812 50.7389 29.3306 50.7389 30.625C50.7389 31.9193 51.7883 32.9687 53.0827 32.9687H55.8953V49.375C55.8953 50.6693 56.9447 51.7187 58.2391 51.7187C59.5334 51.7187 60.5828 50.6693 60.5828 49.375V32.9687H63.4375C64.7319 32.9687 65.7812 31.9193 65.7812 30.625C65.7812 29.3306 64.7319 28.2812 63.4375 28.2812Z" fill="url(#paint1_linear_1023_11908)"/>
<defs>
<linearGradient id="paint0_linear_1023_11908" x1="39.9999" y1="79.9998" x2="39.9999" y2="5.72202e-05" gradientUnits="userSpaceOnUse">
<stop stop-color="#A93AFF"/>
<stop offset="1" stop-color="#FF81FF"/>
</linearGradient>
<linearGradient id="paint1_linear_1023_11908" x1="40" y1="69.0176" x2="40" y2="10.9824" gradientUnits="userSpaceOnUse">
<stop stop-color="#FFBEF9"/>
<stop offset="1" stop-color="#FFF1FF"/>
</linearGradient>
</defs>
</svg>
