<svg width="80" height="80" viewBox="0 0 80 80" fill="none" xmlns="http://www.w3.org/2000/svg">
<path fill-rule="evenodd" clip-rule="evenodd" d="M31.9738 10.6666C31.4496 11.141 30.8987 11.585 30.3238 11.9966C29.3305 12.6633 28.2138 13.1233 27.0405 13.3566C26.5305 13.4566 25.9971 13.4999 24.9338 13.5833C22.2638 13.7966 20.9271 13.9033 19.8138 14.2966C18.5408 14.7461 17.3846 15.4748 16.43 16.4294C15.4754 17.3841 14.7466 18.5403 14.2971 19.8133C13.9038 20.9266 13.7971 22.2633 13.5838 24.9333C13.5474 25.6392 13.4718 26.3425 13.3571 27.0399C13.1238 28.2133 12.6638 29.3299 11.9971 30.3233C11.7071 30.7566 11.3605 31.1633 10.6671 31.9733C8.93047 34.0133 8.06047 35.0333 7.55047 36.0999C6.3738 38.5666 6.3738 41.4333 7.55047 43.8999C8.06047 44.9666 8.93047 45.9866 10.6671 48.0266C11.3605 48.8366 11.7071 49.2433 11.9971 49.6766C12.6638 50.6699 13.1238 51.7866 13.3571 52.9599C13.4571 53.4699 13.5005 54.0033 13.5838 55.0666C13.7971 57.7366 13.9038 59.0733 14.2971 60.1866C14.7466 61.4596 15.4754 62.6158 16.43 63.5704C17.3846 64.525 18.5408 65.2538 19.8138 65.7033C20.9271 66.0966 22.2638 66.2033 24.9338 66.4166C25.9971 66.4999 26.5305 66.5433 27.0405 66.6433C28.2138 66.8766 29.3305 67.3399 30.3238 68.0033C30.7571 68.2933 31.1638 68.6399 31.9738 69.3333C34.0138 71.0699 35.0338 71.9399 36.1005 72.4499C38.5671 73.6266 41.4338 73.6266 43.9005 72.4499C44.9671 71.9399 45.9871 71.0699 48.0271 69.3333C48.8371 68.6399 49.2438 68.2933 49.6771 68.0033C50.6705 67.3366 51.7871 66.8766 52.9605 66.6433C53.4705 66.5433 54.0038 66.4999 55.0671 66.4166C57.7371 66.2033 59.0738 66.0966 60.1871 65.7033C61.4601 65.2538 62.6164 64.525 63.571 63.5704C64.5256 62.6158 65.2543 61.4596 65.7038 60.1866C66.0971 59.0733 66.2038 57.7366 66.4171 55.0666C66.5005 54.0033 66.5438 53.4699 66.6438 52.9599C66.8771 51.7866 67.3405 50.6699 68.0038 49.6766C68.2938 49.2433 68.6405 48.8366 69.3338 48.0266C71.0705 45.9866 71.9405 44.9666 72.4505 43.8999C73.6271 41.4333 73.6271 38.5666 72.4505 36.0999C71.9405 35.0333 71.0705 34.0133 69.3338 31.9733C68.8594 31.449 68.4154 30.8981 68.0038 30.3233C67.3378 29.3296 66.8755 28.2136 66.6438 27.0399C66.5293 26.3425 66.4536 25.6392 66.4171 24.9333C66.2038 22.2633 66.0971 20.9266 65.7038 19.8133C65.2543 18.5403 64.5256 17.3841 63.571 16.4294C62.6164 15.4748 61.4601 14.7461 60.1871 14.2966C59.0738 13.9033 57.7371 13.7966 55.0671 13.5833C54.3612 13.5469 53.6579 13.4712 52.9605 13.3566C51.7868 13.1249 50.6709 12.6626 49.6771 11.9966C49.1029 11.5842 48.5521 11.1401 48.0271 10.6666C45.9871 8.92995 44.9671 8.05995 43.9005 7.54995C42.6827 6.96788 41.3502 6.66577 40.0005 6.66577C38.6508 6.66577 37.3182 6.96788 36.1005 7.54995C35.0338 8.05995 34.0138 8.92995 31.9738 10.6666ZM54.5771 32.8766C55.0482 32.361 55.3024 31.6835 55.2866 30.9853C55.2709 30.287 54.9865 29.6217 54.4926 29.1278C53.9987 28.6339 53.3334 28.3495 52.6352 28.3338C51.9369 28.318 51.2594 28.5722 50.7438 29.0433L34.5771 45.2099L29.2571 39.8933C28.7415 39.4222 28.0641 39.168 27.3658 39.1838C26.6675 39.1995 26.0022 39.4839 25.5083 39.9778C25.0144 40.4717 24.73 41.137 24.7143 41.8353C24.6986 42.5335 24.9527 43.211 25.4238 43.7266L32.6571 50.9599C33.1658 51.4676 33.8551 51.7527 34.5738 51.7527C35.2925 51.7527 35.9818 51.4676 36.4905 50.9599L54.5805 32.8766H54.5771Z" fill="#444444"/>
<path fill-rule="evenodd" clip-rule="evenodd" d="M31.9738 10.6666C31.4496 11.141 30.8987 11.585 30.3238 11.9966C29.3305 12.6633 28.2138 13.1233 27.0405 13.3566C26.5305 13.4566 25.9971 13.4999 24.9338 13.5833C22.2638 13.7966 20.9271 13.9033 19.8138 14.2966C18.5408 14.7461 17.3846 15.4748 16.43 16.4294C15.4754 17.3841 14.7466 18.5403 14.2971 19.8133C13.9038 20.9266 13.7971 22.2633 13.5838 24.9333C13.5474 25.6392 13.4718 26.3425 13.3571 27.0399C13.1238 28.2133 12.6638 29.3299 11.9971 30.3233C11.7071 30.7566 11.3605 31.1633 10.6671 31.9733C8.93047 34.0133 8.06047 35.0333 7.55047 36.0999C6.3738 38.5666 6.3738 41.4333 7.55047 43.8999C8.06047 44.9666 8.93047 45.9866 10.6671 48.0266C11.3605 48.8366 11.7071 49.2433 11.9971 49.6766C12.6638 50.6699 13.1238 51.7866 13.3571 52.9599C13.4571 53.4699 13.5005 54.0033 13.5838 55.0666C13.7971 57.7366 13.9038 59.0733 14.2971 60.1866C14.7466 61.4596 15.4754 62.6158 16.43 63.5704C17.3846 64.525 18.5408 65.2538 19.8138 65.7033C20.9271 66.0966 22.2638 66.2033 24.9338 66.4166C25.9971 66.4999 26.5305 66.5433 27.0405 66.6433C28.2138 66.8766 29.3305 67.3399 30.3238 68.0033C30.7571 68.2933 31.1638 68.6399 31.9738 69.3333C34.0138 71.0699 35.0338 71.9399 36.1005 72.4499C38.5671 73.6266 41.4338 73.6266 43.9005 72.4499C44.9671 71.9399 45.9871 71.0699 48.0271 69.3333C48.8371 68.6399 49.2438 68.2933 49.6771 68.0033C50.6705 67.3366 51.7871 66.8766 52.9605 66.6433C53.4705 66.5433 54.0038 66.4999 55.0671 66.4166C57.7371 66.2033 59.0738 66.0966 60.1871 65.7033C61.4601 65.2538 62.6164 64.525 63.571 63.5704C64.5256 62.6158 65.2543 61.4596 65.7038 60.1866C66.0971 59.0733 66.2038 57.7366 66.4171 55.0666C66.5005 54.0033 66.5438 53.4699 66.6438 52.9599C66.8771 51.7866 67.3405 50.6699 68.0038 49.6766C68.2938 49.2433 68.6405 48.8366 69.3338 48.0266C71.0705 45.9866 71.9405 44.9666 72.4505 43.8999C73.6271 41.4333 73.6271 38.5666 72.4505 36.0999C71.9405 35.0333 71.0705 34.0133 69.3338 31.9733C68.8594 31.449 68.4154 30.8981 68.0038 30.3233C67.3378 29.3296 66.8755 28.2136 66.6438 27.0399C66.5293 26.3425 66.4536 25.6392 66.4171 24.9333C66.2038 22.2633 66.0971 20.9266 65.7038 19.8133C65.2543 18.5403 64.5256 17.3841 63.571 16.4294C62.6164 15.4748 61.4601 14.7461 60.1871 14.2966C59.0738 13.9033 57.7371 13.7966 55.0671 13.5833C54.3612 13.5469 53.6579 13.4712 52.9605 13.3566C51.7868 13.1249 50.6709 12.6626 49.6771 11.9966C49.1029 11.5842 48.5521 11.1401 48.0271 10.6666C45.9871 8.92995 44.9671 8.05995 43.9005 7.54995C42.6827 6.96788 41.3502 6.66577 40.0005 6.66577C38.6508 6.66577 37.3182 6.96788 36.1005 7.54995C35.0338 8.05995 34.0138 8.92995 31.9738 10.6666ZM54.5771 32.8766C55.0482 32.361 55.3024 31.6835 55.2866 30.9853C55.2709 30.287 54.9865 29.6217 54.4926 29.1278C53.9987 28.6339 53.3334 28.3495 52.6352 28.3338C51.9369 28.318 51.2594 28.5722 50.7438 29.0433L34.5771 45.2099L29.2571 39.8933C28.7415 39.4222 28.0641 39.168 27.3658 39.1838C26.6675 39.1995 26.0022 39.4839 25.5083 39.9778C25.0144 40.4717 24.73 41.137 24.7143 41.8353C24.6986 42.5335 24.9527 43.211 25.4238 43.7266L32.6571 50.9599C33.1658 51.4676 33.8551 51.7527 34.5738 51.7527C35.2925 51.7527 35.9818 51.4676 36.4905 50.9599L54.5805 32.8766H54.5771Z" fill="url(#paint0_linear_1023_11790)"/>
<defs>
<linearGradient id="paint0_linear_1023_11790" x1="40.0005" y1="73.3324" x2="40.0005" y2="6.66577" gradientUnits="userSpaceOnUse">
<stop stop-color="#A93AFF"/>
<stop offset="1" stop-color="#FF81FF"/>
</linearGradient>
</defs>
</svg>
