<svg width="64" height="64" viewBox="0 0 64 64" fill="none" xmlns="http://www.w3.org/2000/svg">
<g clip-path="url(#clip0_1023_11912)">
<mask id="mask0_1023_11912" style="mask-type:luminance" maskUnits="userSpaceOnUse" x="0" y="0" width="64" height="64">
<path d="M64 0H0V64H64V0Z" fill="white"/>
</mask>
<g mask="url(#mask0_1023_11912)">
<path d="M32 64C49.6731 64 64 49.6731 64 32C64 14.3269 49.6731 0 32 0C14.3269 0 0 14.3269 0 32C0 49.6731 14.3269 64 32 64Z" fill="url(#paint0_linear_1023_11912)"/>
<path d="M20.75 28.25C24.8845 28.25 28.25 24.8864 28.25 20.75C28.25 19.7136 27.4114 18.875 26.375 18.875C25.3386 18.875 24.5 19.7136 24.5 20.75C24.5 22.8173 22.8191 24.5 20.75 24.5C18.6809 24.5 17 22.8173 17 20.75C17 19.7136 16.1614 18.875 15.125 18.875C14.0886 18.875 13.25 19.7136 13.25 20.75C13.25 24.8864 16.6155 28.25 20.75 28.25ZM43.25 28.25C47.3845 28.25 50.75 24.8864 50.75 20.75C50.75 19.7136 49.9114 18.875 48.875 18.875C47.8386 18.875 47 19.7136 47 20.75C47 22.8173 45.3191 24.5 43.25 24.5C41.1809 24.5 39.5 22.8173 39.5 20.75C39.5 19.7136 38.6614 18.875 37.625 18.875C36.5886 18.875 35.75 19.7136 35.75 20.75C35.75 24.8864 39.1155 28.25 43.25 28.25ZM47 33.875C45.9636 33.875 45.125 34.7136 45.125 35.75C45.125 42.9864 39.2364 48.875 32 48.875C24.7636 48.875 18.875 42.9864 18.875 35.75C18.875 34.7136 18.0364 33.875 17 33.875C15.9636 33.875 15.125 34.7136 15.125 35.75C15.125 45.0554 22.6946 52.625 32 52.625C41.3054 52.625 48.875 45.0554 48.875 35.75C48.875 34.7136 48.0364 33.875 47 33.875Z" fill="url(#paint1_linear_1023_11912)"/>
</g>
</g>
<defs>
<linearGradient id="paint0_linear_1023_11912" x1="32" y1="64" x2="32" y2="0" gradientUnits="userSpaceOnUse">
<stop stop-color="#A93AFF"/>
<stop offset="1" stop-color="#FF81FF"/>
</linearGradient>
<linearGradient id="paint1_linear_1023_11912" x1="32" y1="52.625" x2="32" y2="18.875" gradientUnits="userSpaceOnUse">
<stop stop-color="#FFBEF9"/>
<stop offset="1" stop-color="#FFF1FF"/>
</linearGradient>
<clipPath id="clip0_1023_11912">
<rect width="64" height="64" fill="white"/>
</clipPath>
</defs>
</svg>
