<svg width="80" height="80" viewBox="0 0 80 80" fill="none" xmlns="http://www.w3.org/2000/svg">
<path d="M30.625 51.5625C44.8636 51.5625 56.4062 40.0199 56.4062 25.7812C56.4062 11.5427 44.8636 0 30.625 0C16.3864 0 4.84375 11.5427 4.84375 25.7812C4.84375 40.0199 16.3864 51.5625 30.625 51.5625Z" fill="url(#paint0_linear_1023_11896)"/>
<path d="M42.3438 25.7812C42.3438 27.0756 41.2944 28.125 40 28.125H32.9688V35.1562C32.9688 36.4506 31.9194 37.5 30.625 37.5C29.3306 37.5 28.2812 36.4506 28.2812 35.1562V28.125H21.25C19.9556 28.125 18.9062 27.0756 18.9062 25.7812C18.9062 24.4869 19.9556 23.4375 21.25 23.4375H28.2812V16.4062C28.2812 15.1119 29.3306 14.0625 30.625 14.0625C31.9194 14.0625 32.9688 15.1119 32.9688 16.4062V23.4375H40C41.2944 23.4375 42.3438 24.4869 42.3438 25.7812ZM75.1562 69.8438V62.0312C75.1562 56.4221 70.6091 51.875 65 51.875H55.625V36.3281C55.625 33.5236 53.3514 31.25 50.5469 31.25C47.7424 31.25 45.4688 33.5236 45.4688 36.3281V62.9208L40.3079 58.405C36.8375 55.3685 31.4062 57.833 31.4062 62.4442C31.4062 63.7587 31.8886 65.0275 32.762 66.01L41.7014 76.0667C43.9231 78.5664 47.1156 80 50.46 80H65C70.6091 80 75.1562 75.4529 75.1562 69.8438Z" fill="url(#paint1_linear_1023_11896)"/>
<defs>
<linearGradient id="paint0_linear_1023_11896" x1="30.625" y1="51.5625" x2="30.625" y2="0" gradientUnits="userSpaceOnUse">
<stop stop-color="#A93AFF"/>
<stop offset="1" stop-color="#FF81FF"/>
</linearGradient>
<linearGradient id="paint1_linear_1023_11896" x1="47.0312" y1="80" x2="47.0312" y2="14.0625" gradientUnits="userSpaceOnUse">
<stop stop-color="#FFBEF9"/>
<stop offset="1" stop-color="#FFF1FF"/>
</linearGradient>
</defs>
</svg>
