<svg width="80" height="80" viewBox="0 0 80 80" fill="none" xmlns="http://www.w3.org/2000/svg">
<g clip-path="url(#clip0_1023_11889)">
<mask id="mask0_1023_11889" style="mask-type:luminance" maskUnits="userSpaceOnUse" x="0" y="0" width="80" height="80">
<path d="M80 0H0V80H80V0Z" fill="white"/>
</mask>
<g mask="url(#mask0_1023_11889)">
<path d="M79.9614 21.6692L73.7114 56.0442C73.7105 56.0489 73.7091 56.053 73.7083 56.0578C73.7345 55.9173 73.7498 55.773 73.7498 55.6249C73.7498 54.3305 72.7004 53.2812 71.406 53.2812H27.9993L20.8379 18.9062H39.1943C39.2228 18.8745 39.2495 18.8418 39.2799 18.8115C40.1953 17.8962 41.6791 17.8962 42.5945 18.8115L42.6893 18.9062H48.5603L53.3426 14.124C54.2579 13.2087 55.7418 13.2087 56.6571 14.124C57.5724 15.0393 57.5724 16.5233 56.6571 17.4385L55.1893 18.9062H77.6553C79.1176 18.9062 80.2229 20.2305 79.9614 21.6692ZM68.281 72.0312C68.281 69.4465 66.1781 67.3437 63.5935 67.3437C61.0089 67.3437 58.906 69.4465 58.906 72.0312C58.906 74.6159 61.0089 76.7187 63.5935 76.7187C66.1781 76.7187 68.281 74.6159 68.281 72.0312ZM33.906 72.0312C33.906 69.4465 31.8033 67.3437 29.2185 67.3437C26.6339 67.3437 24.531 69.4465 24.531 72.0312C24.531 74.6159 26.6339 76.7187 29.2185 76.7187C31.8033 76.7187 33.906 74.6159 33.906 72.0312Z" fill="url(#paint0_linear_1023_11889)"/>
<path d="M73.75 65C73.75 66.2944 72.7006 67.3438 71.4062 67.3438H22.9688C19.0917 67.3438 15.9375 64.1895 15.9375 60.3125C15.9375 56.4355 19.0917 53.2812 22.9688 53.2812H23.2114L13.7712 7.96875H2.34375C1.04937 7.96875 0 6.91937 0 5.625C0 4.33062 1.04937 3.28125 2.34375 3.28125H15.677C16.7873 3.28125 17.745 4.06015 17.9715 5.14687L27.9995 53.2812H71.4062C72.7006 53.2812 73.75 54.3306 73.75 55.625C73.75 56.9194 72.7006 57.9688 71.4062 57.9688H22.9688C21.6764 57.9688 20.625 59.0201 20.625 60.3125C20.625 61.6049 21.6764 62.6562 22.9688 62.6562H71.4062C72.7006 62.6562 73.75 63.7056 73.75 65ZM64.375 19.6875C64.375 28.7339 57.0151 36.0938 47.9688 36.0938C38.9224 36.0938 31.5625 28.7339 31.5625 19.6875C31.5625 10.6411 38.9224 3.28125 47.9688 3.28125C57.0151 3.28125 64.375 10.6411 64.375 19.6875ZM56.6574 14.124C55.742 13.2087 54.2581 13.2087 53.3429 14.124L45.625 21.8418L42.5946 18.8114C41.6794 17.8961 40.1955 17.8961 39.2801 18.8114C38.3649 19.7267 38.3649 21.2106 39.2801 22.126L43.9676 26.8135C44.883 27.7288 46.3669 27.7288 47.2821 26.8135L56.6571 17.4385C57.5726 16.5232 57.5726 15.0393 56.6574 14.124Z" fill="url(#paint1_linear_1023_11889)"/>
</g>
</g>
<defs>
<linearGradient id="paint0_linear_1023_11889" x1="50.4189" y1="76.7187" x2="50.4189" y2="13.4374" gradientUnits="userSpaceOnUse">
<stop stop-color="#A93AFF"/>
<stop offset="1" stop-color="#FF81FF"/>
</linearGradient>
<linearGradient id="paint1_linear_1023_11889" x1="36.875" y1="67.3438" x2="36.875" y2="3.28125" gradientUnits="userSpaceOnUse">
<stop stop-color="#FFBEF9"/>
<stop offset="1" stop-color="#FFF1FF"/>
</linearGradient>
<clipPath id="clip0_1023_11889">
<rect width="80" height="80" fill="white"/>
</clipPath>
</defs>
</svg>
