<svg width="80" height="80" viewBox="0 0 80 80" fill="none" xmlns="http://www.w3.org/2000/svg">
<g clip-path="url(#clip0_1023_11899)">
<mask id="mask0_1023_11899" style="mask-type:luminance" maskUnits="userSpaceOnUse" x="0" y="0" width="80" height="80">
<path d="M80 0H0V80H80V0Z" fill="white"/>
</mask>
<g mask="url(#mask0_1023_11899)">
<path d="M68.125 32.9688H59.812C59.5694 32.2913 59.2901 31.623 58.9789 30.9682L64.8611 25.0837C65.7725 24.1724 65.7801 22.6886 64.8611 21.7695L58.2281 15.1411C57.3126 14.2256 55.8294 14.2256 54.9139 15.1411L49.0317 21.0232C48.3773 20.7096 47.7088 20.4305 47.0312 20.1877V11.875C47.0312 10.5795 45.983 9.53125 44.6875 9.53125H35.3125C34.017 9.53125 32.9688 10.5795 32.9688 11.875V20.188C32.2913 20.4306 31.623 20.7099 30.9682 21.0235L25.0861 15.1412C24.1706 14.2257 22.6874 14.2257 21.7719 15.1412L15.1389 21.7698C14.2204 22.6883 14.2273 24.1723 15.1389 25.0839L21.0211 30.9684C20.7099 31.623 20.4306 32.2914 20.188 32.9689H11.875C10.5795 32.9689 9.53125 34.0172 9.53125 35.3126V44.6876C9.53125 45.9831 10.5795 47.0314 11.875 47.0314H20.188C20.4306 47.7089 20.7099 48.3771 21.0211 49.0319L15.1389 54.9164C14.2275 55.8279 14.2199 57.3116 15.1389 58.2306L21.7719 64.859C22.6874 65.7745 24.1706 65.7745 25.0861 64.859L30.9682 58.9769C31.6229 59.2905 32.2913 59.5697 32.9688 59.8124V68.125C32.9688 69.4205 34.017 70.4688 35.3125 70.4688H44.6875C45.983 70.4688 47.0312 69.4205 47.0312 68.125V59.812C47.7088 59.5694 48.377 59.2901 49.0317 58.9766L54.9139 64.8587C55.8294 65.7743 57.3126 65.7743 58.2281 64.8587L64.8611 58.2304C65.7796 57.3118 65.7728 55.8279 64.8611 54.9161L58.9789 49.0316C59.2901 48.377 59.5694 47.7086 59.812 47.0311H68.125C69.4205 47.0311 70.4688 45.9827 70.4688 44.6874V35.3124C70.4688 34.017 69.4205 32.9688 68.125 32.9688Z" fill="url(#paint0_linear_1023_11899)"/>
<path d="M40 28.2812C33.5364 28.2812 28.2812 33.5386 28.2812 40C28.2812 46.4614 33.5364 51.7188 40 51.7188C46.4636 51.7188 51.7188 46.4614 51.7188 40C51.7188 33.5386 46.4636 28.2812 40 28.2812ZM39.8438 75.3125C30.455 75.3125 21.6246 71.655 14.9826 65.0151C8.345 58.373 4.6875 49.545 4.6875 40.1562C4.6875 28.996 9.86015 18.7055 18.8781 11.9191C19.7983 11.2278 20.0775 9.97125 19.5419 8.95281C19.0018 7.92969 17.7977 7.46046 16.7175 7.82671L5.95547 11.4178L7.43859 15.8626L8.54187 15.4964C3.035 22.4591 0 31.0514 0 40.1562C0 50.797 4.14281 60.8038 11.6684 68.3294C19.1986 75.855 29.2008 80 39.8438 80C41.1393 80 42.1875 78.9518 42.1875 77.6562C42.1875 76.3607 41.1393 75.3125 39.8438 75.3125ZM72.5614 64.1374C72.1951 64.2586 71.8244 64.3822 71.449 64.5058C76.9605 57.5317 80 48.9212 80 39.8438C80 29.203 75.8571 19.1963 68.3315 11.6706C60.8014 4.145 50.7992 0 40.1562 0C38.8607 0 37.8125 1.04828 37.8125 2.34375C37.8125 3.63923 38.8607 4.6875 40.1562 4.6875C49.545 4.6875 58.3753 8.345 65.0174 14.9849C71.655 21.627 75.3125 30.455 75.3125 39.8438C75.3125 50.7132 70.3641 60.8345 61.7351 67.6094C60.7089 68.4124 60.5362 69.9024 61.3551 70.9212C61.8175 71.4934 62.1012 71.8483 62.9252 71.8483C64.2527 71.8483 66.9719 70.9419 74.0444 68.5821C75.2712 68.1749 75.935 66.8471 75.5275 65.6181C75.1156 64.389 73.7881 63.7322 72.5614 64.1374Z" fill="url(#paint1_linear_1023_11899)"/>
</g>
</g>
<defs>
<linearGradient id="paint0_linear_1023_11899" x1="40" y1="70.4688" x2="40" y2="9.53125" gradientUnits="userSpaceOnUse">
<stop stop-color="#A93AFF"/>
<stop offset="1" stop-color="#FF81FF"/>
</linearGradient>
<linearGradient id="paint1_linear_1023_11899" x1="40" y1="80" x2="40" y2="0" gradientUnits="userSpaceOnUse">
<stop stop-color="#FFBEF9"/>
<stop offset="1" stop-color="#FFF1FF"/>
</linearGradient>
<clipPath id="clip0_1023_11899">
<rect width="80" height="80" fill="white"/>
</clipPath>
</defs>
</svg>
