<svg width="700" height="529" viewBox="0 0 700 529" fill="none" xmlns="http://www.w3.org/2000/svg">
    <rect width="700" height="529" fill="#d5d5d5" />
    <g clip-path="url(#clip0_958_24)">
        <rect width="700" height="4800" fill="#0a0909" />
        <g opacity="0.05" clip-path="url(#clip1_958_24)">
            <rect x="72.5" y="-27.3" width="37.2" height="703.9" transform="matrix(1.6,0.4,-0.3,1,-35.8,-88)"
                fill="#b6fffa" />
            <rect x="72.5" y="-27.3" width="37.2" height="703.9" transform="matrix(1.6,0.4,-0.3,1,74,-88)"
                fill="#b6fffa" />
            <rect x="72.5" y="-27.3" width="37.2" height="703.9" transform="matrix(1.6,0.4,-0.3,1,182,-88)"
                fill="#b6fffa" />
            <rect x="72.5" y="-27.3" width="37.2" height="703.9" transform="matrix(1.6,0.4,-0.3,1,290.1,-88)"
                fill="#b6fffa" />
            <rect x="72.5" y="-27.3" width="37.2" height="703.9" transform="matrix(1.6,0.4,-0.3,1,398.1,-88)"
                fill="#b6fffa" />
            <rect x="72.5" y="-27.3" width="37.2" height="703.9" transform="matrix(1.6,0.4,-0.3,1,507.9,-88)"
                fill="#b6fffa" />
            <rect x="72.5" y="-27.3" width="37.2" height="703.9" transform="matrix(1.6,0.4,-0.3,1,616,-88)"
                fill="#b6fffa" />
            <rect x="72.5" y="-27.3" width="37.2" height="703.9" transform="matrix(1.6,0.4,-0.3,1,724,-88)"
                fill="#b6fffa" />
        </g>
    </g>
    <defs>
        <clipPath id="clip0_958_24">
            <rect width="700" height="4800" fill="white" />
        </clipPath>
        <clipPath id="clip1_958_24">
            <rect width="1926.2" height="529" fill="white" transform="translate(-783)" />
        </clipPath>
    </defs>
</svg>