<svg width="1440" height="420" viewBox="0 0 1440 420" fill="none" xmlns="http://www.w3.org/2000/svg">
<rect width="1440" height="420" fill="#D5D5D5"/>
<g clip-path="url(#clip0_958_24)">
<rect width="1440" height="6952" transform="translate(0 -4690)" fill="#0A0909"/>
<g opacity="0.05" clip-path="url(#clip1_958_24)">
<rect width="35.9366" height="490.522" transform="matrix(0.967629 0.252375 -0.265403 0.964138 17.1047 -31)" fill="#B6FFFA"/>
<rect width="35.9366" height="490.522" transform="matrix(0.967629 0.252375 -0.265403 0.964138 83.1045 -31)" fill="#B6FFFA"/>
<rect width="35.9366" height="490.522" transform="matrix(0.967629 0.252375 -0.265403 0.964138 148.064 -31)" fill="#B6FFFA"/>
<rect width="35.9366" height="490.522" transform="matrix(0.967629 0.252375 -0.265403 0.964138 213.023 -31)" fill="#B6FFFA"/>
<rect width="35.9366" height="490.522" transform="matrix(0.967629 0.252375 -0.265403 0.964138 277.982 -31)" fill="#B6FFFA"/>
<rect width="35.9366" height="490.522" transform="matrix(0.967629 0.252375 -0.265403 0.964138 343.982 -31)" fill="#B6FFFA"/>
<rect width="35.9366" height="490.522" transform="matrix(0.967629 0.252375 -0.265403 0.964138 408.942 -31)" fill="#B6FFFA"/>
<rect width="35.9366" height="490.522" transform="matrix(0.967629 0.252375 -0.265403 0.964138 473.901 -31)" fill="#B6FFFA"/>
<rect width="35.9366" height="490.522" transform="matrix(0.967629 0.252375 -0.265403 0.964138 538.86 -31)" fill="#B6FFFA"/>
<rect width="35.9366" height="490.522" transform="matrix(0.967629 0.252375 -0.265403 0.964138 604.86 -31)" fill="#B6FFFA"/>
<rect width="35.9366" height="490.522" transform="matrix(0.967629 0.252375 -0.265403 0.964138 669.82 -31)" fill="#B6FFFA"/>
<rect width="35.9366" height="490.522" transform="matrix(0.967629 0.252375 -0.265403 0.964138 734.779 -31)" fill="#B6FFFA"/>
<rect width="35.9366" height="490.522" transform="matrix(0.967629 0.252375 -0.265403 0.964138 799.738 -31)" fill="#B6FFFA"/>
<rect width="35.9366" height="490.522" transform="matrix(0.967629 0.252375 -0.265403 0.964138 865.738 -31)" fill="#B6FFFA"/>
<rect width="35.9366" height="490.522" transform="matrix(0.967629 0.252375 -0.265403 0.964138 930.698 -31)" fill="#B6FFFA"/>
<rect width="35.9366" height="490.522" transform="matrix(0.967629 0.252375 -0.265403 0.964138 995.657 -31)" fill="#B6FFFA"/>
<rect width="35.9366" height="490.522" transform="matrix(0.967629 0.252375 -0.265403 0.964138 1060.62 -31)" fill="#B6FFFA"/>
<rect width="35.9366" height="490.522" transform="matrix(0.967629 0.252375 -0.265403 0.964138 1126.62 -31)" fill="#B6FFFA"/>
<rect width="35.9366" height="490.522" transform="matrix(0.967629 0.252375 -0.265403 0.964138 1191.58 -31)" fill="#B6FFFA"/>
<rect width="35.9366" height="490.522" transform="matrix(0.967629 0.252375 -0.265403 0.964138 1256.54 -31)" fill="#B6FFFA"/>
<rect width="35.9366" height="490.522" transform="matrix(0.967629 0.252375 -0.265403 0.964138 1321.49 -31)" fill="#B6FFFA"/>
<rect width="35.9366" height="490.522" transform="matrix(0.967629 0.252375 -0.265403 0.964138 1387.49 -31)" fill="#B6FFFA"/>
<rect width="35.9366" height="490.522" transform="matrix(0.967629 0.252375 -0.265403 0.964138 1452.45 -31)" fill="#B6FFFA"/>
<rect width="35.9366" height="490.522" transform="matrix(0.967629 0.252375 -0.265403 0.964138 1517.41 -31)" fill="#B6FFFA"/>
</g>
</g>
<defs>
<clipPath id="clip0_958_24">
<rect width="1440" height="6952" fill="white" transform="translate(0 -4690)"/>
</clipPath>
<clipPath id="clip1_958_24">
<rect width="1926.15" height="420" fill="white" transform="translate(-243)"/>
</clipPath>
</defs>
</svg>
