<svg width="45" height="48" viewBox="0 0 45 48" fill="none" xmlns="http://www.w3.org/2000/svg">
<path opacity="0.1" d="M5.06005 42.7683H2.99281L16.1269 6.27086H18.4436L31.5777 42.7683H29.5105L17.3744 8.78362H17.1962L5.06005 42.7683ZM8.58861 29.0996H25.9819V30.9352H8.58861V29.0996ZM40.4927 6.27086V42.7683H38.5324V6.27086H40.4927Z" fill="white"/>
<path fill-rule="evenodd" clip-rule="evenodd" d="M4.0428 0.150953C2.22365 0.590965 0.71112 2.19581 0.188053 4.24105C0.00675138 4.95009 -0.00366672 5.33071 0.000714888 11.0862C0.00587545 17.7697 -0.0094119 17.589 0.586974 18.0298C1.08755 18.3997 1.96952 18.2293 2.37282 17.6847C2.57311 17.4143 2.5771 17.3092 2.62501 11.1123C2.67282 4.92633 2.67739 4.80667 2.88294 4.36198C3.21526 3.6432 3.77299 3.15489 4.52828 2.9216C5.16255 2.72569 5.3715 2.72121 13.8083 2.72082C22.0813 2.72053 22.4521 2.71293 22.7395 2.53757C23.3542 2.1628 23.5444 1.14042 23.1101 0.545201C22.6905 -0.0301541 23.1224 -0.00590918 13.467 0.00295142C6.13166 0.00966991 4.52234 0.0349863 4.0428 0.150953ZM26.8719 0.164001C26.459 0.37315 26.091 0.898262 26.091 1.2782C26.091 1.69864 26.3185 2.1628 26.6695 2.45802L26.9822 2.72121H33.3975C39.6094 2.72121 39.8295 2.72744 40.3419 2.91916C41.0132 3.17038 41.6863 3.76014 41.9783 4.35322L42.2056 4.81465L42.2543 11.095C42.3015 17.1841 42.3089 17.3832 42.4977 17.6349C42.7821 18.0139 43.1546 18.2029 43.6174 18.2029C44.1388 18.2029 44.5182 17.9768 44.7809 17.5094C44.9887 17.1398 44.989 17.1269 44.9528 10.8308C44.9133 3.96802 44.939 4.29587 44.3434 3.07943C43.923 2.22073 43.2101 1.42143 42.3762 0.873726C41.0424 -0.00240309 41.5467 0.0486179 33.9292 0.0187255C27.6741 -0.00581156 27.1874 0.00421789 26.8719 0.164001ZM6.00752 5.75913C5.84676 5.87783 5.83761 6.2304 5.86146 11.3871L5.88688 16.8884L11.2909 16.9371C17.2914 16.9912 16.982 16.9557 17.6001 17.6598C17.8831 17.9821 18.105 18.528 18.1061 18.9052C18.1074 19.2697 17.6926 20.1537 17.408 20.3933C16.6687 21.0152 17.2236 20.9732 9.05137 21.0266L1.60263 21.0753L1.57537 22.3764C1.55706 23.2526 1.58481 23.7215 1.66037 23.8126C1.83135 24.0186 16.0992 24.0087 17.0758 23.8018C18.5393 23.4917 19.7981 22.5819 20.5184 21.3134C21.5736 19.4554 21.2422 17.0962 19.7197 15.6272L19.119 15.0477L19.7187 14.4588C21.2325 12.9724 21.5253 10.8189 20.5018 8.69949C20.0801 7.82648 19.497 7.18024 18.6064 6.59875C17.2033 5.6828 17.3446 5.7011 11.3882 5.66449C7.22687 5.63898 6.14452 5.65797 6.00752 5.75913ZM24.5805 5.75719C24.5536 5.82788 24.5428 9.93871 24.5566 14.8924L24.5818 23.899H25.9936H27.4055L27.4192 16.3042L27.4329 8.70942H30.535C33.4982 8.70942 33.6572 8.71877 34.0871 8.9175C34.7531 9.22548 35.2673 9.74134 35.6399 10.4754C35.9355 11.0577 35.9714 11.2136 35.9718 11.915C35.9722 12.4262 35.91 12.8812 35.7942 13.2147C35.4643 14.1655 34.6311 14.9834 33.6696 15.3004C33.491 15.3593 32.6877 15.4339 31.8844 15.4664L30.4239 15.5253L30.3956 16.2734L30.3672 17.0215L31.5695 18.2694C32.8261 19.574 35.6479 22.558 36.4556 23.4365L36.9256 23.9477H40.0573C42.3632 23.9477 43.2198 23.917 43.3058 23.8309C43.4287 23.708 43.4773 21.4771 43.3636 21.1807C43.3119 21.0458 42.9961 21.0266 40.8245 21.0266H38.3445L38.0842 20.7527C37.9411 20.6021 37.2435 19.885 36.5338 19.1591C35.8242 18.4333 35.2439 17.8007 35.2441 17.7534C35.2443 17.7062 35.441 17.5865 35.6814 17.4877C36.268 17.2465 37.2841 16.4499 37.7215 15.8886C39.2197 13.9656 39.4509 11.3998 38.3362 9.06823C37.896 8.14741 36.6174 6.86613 35.6574 6.38395C34.3038 5.70393 34.3358 5.70743 29.2306 5.66605C25.4837 5.63567 24.6204 5.65261 24.5805 5.75719ZM16.3915 8.7805C16.8942 8.93075 17.5676 9.59052 17.8398 10.1996C18.4735 11.6174 17.7026 13.3846 16.2451 13.8553C15.8205 13.9925 15.235 14.0161 12.2534 14.0161H8.75927V11.3384V8.66074H12.375C14.9538 8.66074 16.1056 8.69511 16.3915 8.7805ZM40.6279 26.6696C39.7066 26.6988 38.9125 26.7666 38.8631 26.8201C38.8136 26.8737 38.1911 27.5747 37.4798 28.378C36.7683 29.1813 36.1597 29.8605 36.1273 29.8872C36.0949 29.914 35.678 30.3741 35.201 30.9096C34.724 31.4452 33.8664 32.3872 33.2951 33.0031C32.7239 33.6189 31.3866 35.0868 30.3234 36.2649C29.2603 37.4431 28.2082 38.6042 27.9854 38.8452C25.3785 41.6655 25.0904 42.0209 25.218 42.2594C25.3174 42.4452 25.4665 42.4487 32.3021 42.4242L39.2845 42.3992V40.9387V39.4781L35.3654 39.4527C33.2098 39.4387 31.4463 39.4003 31.4463 39.3675C31.4463 39.302 32.782 37.7994 33.7281 36.8005C34.0579 36.4524 34.6104 35.8595 34.9561 35.4829C36.311 34.0065 37.8624 32.335 38.6559 31.4966C39.1135 31.0131 39.7567 30.3327 40.0854 29.9846C41.6236 28.3551 42.3519 27.6237 42.3549 27.7051C42.3567 27.7539 42.3553 28.8139 42.3517 30.0606C42.3446 32.5444 42.394 32.8119 42.9294 33.1932C43.356 33.4969 43.6534 33.5262 44.1374 33.3121C44.8636 32.9909 44.8832 32.9043 44.8832 30.0288C44.8832 27.1995 44.8644 27.1158 44.1487 26.7694C43.7211 26.5624 43.8694 26.5666 40.6279 26.6696ZM5.90314 26.739C5.8674 26.7746 5.83819 28.2627 5.83819 30.0458C5.83819 33.981 5.70518 33.6587 7.29873 33.5873C8.64797 33.5269 8.6619 33.5137 8.6619 32.3029C8.6619 31.8311 8.69909 31.4452 8.74446 31.4452C8.78984 31.4452 9.08282 31.7191 9.39548 32.0537C9.70813 32.3885 10.254 32.969 10.6085 33.3439C11.3484 34.1263 14.1378 37.1044 14.7934 37.8117C15.0359 38.0734 15.7405 38.8183 16.3593 39.467C16.978 40.1158 17.7835 40.9752 18.1494 41.3768C19.1748 42.5028 19.0756 42.4481 20.0892 42.4464C20.5786 42.4455 21.0341 42.41 21.1014 42.3673C21.1982 42.3058 21.2185 40.6686 21.1988 34.5062L21.1738 26.7227L19.8671 26.6955C19.1485 26.6805 18.5214 26.7073 18.4736 26.7551C18.4247 26.804 18.3906 29.0841 18.3956 31.9763C18.4011 35.2074 18.3698 37.0983 18.3112 37.0773C18.26 37.0589 17.7657 36.5524 17.213 35.9517C16.0509 34.6888 14.4369 32.9642 12.2209 30.6178C9.94191 28.2045 9.51816 27.7527 9.00113 27.1852L8.53551 26.6741H7.2518C6.54568 26.6741 5.93877 26.7033 5.90314 26.739ZM24.5757 26.8006C24.549 26.8704 24.5394 27.5166 24.5545 28.2368L24.5818 29.5465L28.4841 29.5719L32.3864 29.5973L33.1196 28.7929C33.5228 28.3506 34.0773 27.7476 34.3518 27.453C34.6263 27.1585 34.8516 26.8628 34.8525 26.7958C34.8551 26.6132 24.6458 26.6182 24.5757 26.8006ZM7.1924 37.4577C6.78832 37.8728 6.31832 38.3781 6.14792 38.5809L5.83819 38.9494V40.5818C5.83819 41.7216 5.87344 42.2494 5.95504 42.331C6.03332 42.4093 6.46895 42.4479 7.27448 42.4479H8.47709L8.61818 42.1102C8.7283 41.8466 8.75927 41.2505 8.75927 39.3919C8.75927 38.0824 8.73269 36.9418 8.70016 36.8571C8.66112 36.7554 8.51974 36.7031 8.2841 36.7031C7.96688 36.7031 7.84507 36.7872 7.1924 37.4577Z" fill="#B6FFFA" fill-opacity="0.4"/>
<path fill-rule="evenodd" clip-rule="evenodd" d="M0.917545 26.6793C0.754938 26.7271 0.492042 26.9018 0.33333 27.0674L0.0449219 27.3686V32.5957C0.0449219 35.4706 0.0693614 39.1592 0.0992537 40.7926C0.160402 44.1365 0.172573 44.2042 0.931177 45.4323C1.68053 46.6456 2.95451 47.6093 4.18311 47.8923C4.46198 47.9564 7.02824 47.9939 11.2424 47.9954C17.3564 47.9974 17.8891 47.9846 18.1974 47.8273C19.1926 47.3199 19.1858 46.124 18.1848 45.6031C17.9667 45.4896 16.8179 45.4663 11.4456 45.4663C5.22019 45.4663 4.94931 45.4588 4.45185 45.2727C3.77183 45.0182 3.1844 44.4734 2.87622 43.8111L2.62715 43.2755L2.62598 35.4373C2.62501 28.1711 2.61245 27.5742 2.45461 27.2584C2.20603 26.7608 1.51958 26.5022 0.917545 26.6793ZM43.2809 37.4557C42.9322 37.5443 42.6189 37.8103 42.4846 38.1317C42.3852 38.3695 42.3518 39.0256 42.3518 40.7371C42.3518 42.8346 42.3346 43.0709 42.1439 43.5804C41.892 44.2539 41.3583 44.8557 40.7274 45.178L40.2584 45.4176L31.3768 45.4454L22.4951 45.4731L22.151 45.7977C21.8315 46.099 21.8069 46.1639 21.8069 46.706C21.8069 47.2129 21.8422 47.3251 22.0747 47.5579C22.2219 47.7054 22.4439 47.8647 22.5679 47.912C22.9077 48.0415 39.8868 48.0224 40.5214 47.8917C41.2472 47.7422 42.3155 47.1988 42.9157 46.6739C43.6135 46.0634 44.271 45.1113 44.5753 44.2702C44.8211 43.591 44.8307 43.4814 44.8646 40.974C44.8995 38.3935 44.8985 38.3787 44.6725 38.0306C44.5394 37.8258 44.2931 37.6193 44.0782 37.5327C43.7015 37.3808 43.6104 37.372 43.2809 37.4557Z" fill="#B6FFFA" fill-opacity="0.4"/>
<path fill-rule="evenodd" clip-rule="evenodd" d="M6.00742 5.75919C5.84666 5.87788 5.83751 6.23045 5.86136 11.3871L5.88677 16.8885L11.2908 16.9372C17.2913 16.9912 16.9819 16.9558 17.6 17.6599C17.883 17.9821 18.1048 18.528 18.106 18.9052C18.1073 19.2698 17.6925 20.1538 17.4079 20.3933C16.6686 21.0153 17.2235 20.9732 9.05127 21.0267L1.60253 21.0754L1.57527 22.3764C1.55696 23.2527 1.58471 23.7216 1.66027 23.8126C1.83125 24.0187 16.0991 24.0087 17.0757 23.8018C18.5392 23.4918 19.798 22.582 20.5183 21.3134C21.5735 19.4554 21.2421 17.0963 19.7196 15.6273L19.1189 15.0477L19.7185 14.4588C21.2324 12.9725 21.5252 10.819 20.5017 8.69954C20.08 7.82653 19.4969 7.18029 18.6063 6.5988C17.2032 5.68285 17.3445 5.70115 11.3881 5.66454C7.22677 5.63903 6.14441 5.65802 6.00742 5.75919ZM24.5804 5.75724C24.5535 5.82793 24.5427 9.93876 24.5565 14.8924L24.5817 23.8991H25.9935H27.4054L27.4191 16.3043L27.4328 8.70947H30.5349C33.4981 8.70947 33.6571 8.71882 34.087 8.91755C34.753 9.22553 35.2672 9.74139 35.6398 10.4755C35.9354 11.0577 35.9713 11.2136 35.9717 11.9151C35.9721 12.4263 35.9099 12.8813 35.7941 13.2148C35.4642 14.1656 34.631 14.9835 33.6695 15.3004C33.4909 15.3593 32.6876 15.434 31.8843 15.4664L30.4238 15.5253L30.3955 16.2734L30.3671 17.0215L31.5694 18.2695C32.826 19.574 35.6478 22.558 36.4555 23.4366L36.9255 23.9478H40.0572C42.3631 23.9478 43.2197 23.917 43.3057 23.8309C43.4286 23.708 43.4772 21.4771 43.3635 21.1807C43.3118 21.0459 42.996 21.0267 40.8244 21.0267H38.3444L38.0841 20.7528C37.941 20.6022 37.2433 19.885 36.5337 19.1591C35.8241 18.4334 35.2438 17.8007 35.244 17.7534C35.2442 17.7062 35.4409 17.5865 35.6813 17.4877C36.2679 17.2465 37.284 16.4499 37.7214 15.8886C39.2196 13.9657 39.4508 11.3999 38.3361 9.06828C37.8959 8.14746 36.6173 6.86618 35.6573 6.384C34.3037 5.70398 34.3357 5.70748 29.2305 5.6661C25.4836 5.63572 24.6203 5.65266 24.5804 5.75724ZM16.3913 8.78055C16.8941 8.9308 17.5675 9.59057 17.8397 10.1996C18.4734 11.6174 17.7025 13.3847 16.245 13.8553C15.8204 13.9925 15.2349 14.0161 12.2533 14.0161H8.75916V11.3384V8.66079H12.3749C14.9537 8.66079 16.1055 8.69516 16.3913 8.78055ZM40.6278 26.6696C39.7065 26.6988 38.9123 26.7666 38.863 26.8202C38.8135 26.8737 38.191 27.5748 37.4797 28.3781C36.7682 29.1814 36.1596 29.8605 36.1272 29.8873C36.0948 29.9141 35.6779 30.3741 35.2009 30.9097C34.7239 31.4452 33.8663 32.3873 33.295 33.0031C32.7238 33.619 31.3865 35.0868 30.3233 36.265C29.2601 37.4432 28.2081 38.6043 27.9853 38.8453C25.3784 41.6656 25.0903 42.021 25.2179 42.2594C25.3173 42.4452 25.4664 42.4487 32.302 42.4243L39.2844 42.3993V40.9387V39.4782L35.3653 39.4528C33.2097 39.4387 31.4462 39.4004 31.4462 39.3676C31.4462 39.302 32.7819 37.7994 33.728 36.8005C34.0578 36.4524 34.6103 35.8595 34.956 35.4829C36.3109 34.0065 37.8623 32.3351 38.6558 31.4966C39.1134 31.0132 39.7566 30.3328 40.0853 29.9847C41.6235 28.3552 42.3518 27.6238 42.3548 27.7052C42.3566 27.7539 42.3552 28.8139 42.3516 30.0606C42.3445 32.5444 42.3939 32.812 42.9293 33.1933C43.3559 33.497 43.6533 33.5263 44.1373 33.3122C44.8635 32.9909 44.8831 32.9044 44.8831 30.0289C44.8831 27.1995 44.8643 27.1159 44.1486 26.7694C43.721 26.5624 43.8693 26.5666 40.6278 26.6696ZM5.90303 26.7391C5.8673 26.7747 5.83809 28.2628 5.83809 30.0458C5.83809 33.9811 5.70508 33.6587 7.29863 33.5873C8.64787 33.527 8.66179 33.5137 8.66179 32.3029C8.66179 31.8312 8.69899 31.4452 8.74436 31.4452C8.78974 31.4452 9.08272 31.7191 9.39537 32.0538C9.70803 32.3885 10.2539 32.969 10.6084 33.3439C11.3483 34.1264 14.1377 37.1044 14.7933 37.8118C15.0358 38.0734 15.7404 38.8183 16.3592 39.4671C16.9779 40.1158 17.7834 40.9752 18.1493 41.3769C19.1747 42.5029 19.0755 42.4481 20.0891 42.4465C20.5785 42.4456 21.034 42.4101 21.1013 42.3673C21.1981 42.3059 21.2184 40.6686 21.1987 34.5062L21.1737 26.7228L19.867 26.6955C19.1484 26.6805 18.5213 26.7073 18.4735 26.7551C18.4246 26.804 18.3905 29.0841 18.3955 31.9764C18.401 35.2075 18.3697 37.0984 18.3111 37.0773C18.2599 37.0589 17.7656 36.5524 17.2129 35.9518C16.0508 34.6889 14.4368 32.9643 12.2208 30.6179C9.94181 28.2046 9.51806 27.7528 9.00103 27.1853L8.53541 26.6741H7.2517C6.54557 26.6741 5.93867 26.7033 5.90303 26.7391ZM24.5756 26.8007C24.5489 26.8704 24.5393 27.5166 24.5544 28.2369L24.5817 29.5465L28.484 29.5719L32.3863 29.5973L33.1195 28.793C33.5227 28.3506 34.0772 27.7476 34.3517 27.4531C34.6262 27.1585 34.8515 26.8628 34.8523 26.7958C34.855 26.6133 24.6457 26.6182 24.5756 26.8007ZM7.1923 37.4578C6.78822 37.8728 6.31822 38.3782 6.14782 38.5809L5.83809 38.9495V40.5819C5.83809 41.7217 5.87334 42.2495 5.95493 42.3311C6.03322 42.4094 6.46885 42.4479 7.27438 42.4479H8.47699L8.61808 42.1103C8.7282 41.8467 8.75916 41.2506 8.75916 39.3919C8.75916 38.0825 8.73258 36.9419 8.70006 36.8572C8.66102 36.7554 8.51964 36.7032 8.284 36.7032C7.96677 36.7032 7.84496 36.7873 7.1923 37.4578Z" fill="white"/>
<rect x="42.3555" y="26.5818" width="2.5316" height="7.01059" rx="1.2658" fill="#4C6967"/>
</svg>
