<svg width="25" height="24" viewBox="0 0 25 24" fill="none" xmlns="http://www.w3.org/2000/svg">
<path d="M4.07275 11.2501C3.87384 11.2501 3.68308 11.3291 3.54242 11.4697C3.40177 11.6104 3.32275 11.8012 3.32275 12.0001C3.32275 12.199 3.40177 12.3898 3.54242 12.5304C3.68308 12.6711 3.87384 12.7501 4.07275 12.7501H13.3228V18.0001C13.3229 18.1483 13.3669 18.2932 13.4494 18.4164C13.5318 18.5396 13.6489 18.6356 13.7858 18.6924C13.9228 18.7491 14.0735 18.7639 14.2189 18.735C14.3643 18.7062 14.4979 18.6348 14.6028 18.5301L20.6028 12.5301C20.7432 12.3894 20.8221 12.1988 20.8221 12.0001C20.8221 11.8013 20.7432 11.6107 20.6028 11.4701L14.6028 5.47007C14.4979 5.36532 14.3643 5.29399 14.2189 5.26511C14.0735 5.23622 13.9228 5.25107 13.7858 5.30779C13.6489 5.3645 13.5318 5.46053 13.4494 5.58374C13.3669 5.70696 13.3229 5.85183 13.3228 6.00007V11.2501H4.07275Z" fill="#B6FFFA"/>
</svg>
