<svg width="81" height="80" viewBox="0 0 81 80" fill="none" xmlns="http://www.w3.org/2000/svg">
<path d="M52.594 11.2733L59.2606 14.7733C66.4306 18.5366 70.0173 20.4166 72.0106 23.8C74.0006 27.18 74.0006 31.39 74.0006 39.8V40.19C74.0006 48.6066 74.0006 52.8166 72.0106 56.1966C70.0173 59.58 66.4306 61.4633 59.2606 65.2266L52.594 68.7233C46.7407 71.7966 43.814 73.3333 40.6673 73.3333C37.5207 73.3333 34.594 71.8 28.7407 68.7266L22.074 65.2266C14.904 61.4633 11.3173 59.5833 9.32398 56.2C7.33398 52.82 7.33398 48.61 7.33398 40.2V39.81C7.33398 31.3933 7.33398 27.1833 9.32398 23.8033C11.3173 20.42 14.904 18.5366 22.074 14.7766L28.7407 11.2766C34.594 8.20329 37.5207 6.66663 40.6673 6.66663C43.814 6.66663 46.7407 8.19996 52.594 11.2733Z" stroke="#B6FFFA" stroke-width="4" stroke-linecap="round"/>
<path opacity="0.5" d="M70.667 25L40.667 40M40.667 40L10.667 25M40.667 40V71.6667" stroke="#B6FFFA" stroke-width="4" stroke-linecap="round"/>
</svg>
