<svg width="80" height="80" viewBox="0 0 80 80" fill="none" xmlns="http://www.w3.org/2000/svg">
<path d="M60 29.3567C60 45.87 45.7767 50 38.6667 50C32.4433 50 20 45.87 20 29.3567C20 22.3667 24.0267 17.86 27.5367 15.51C29.32 14.31 31.6133 15.1734 31.91 17.2534C32.5033 21.4034 36.26 24.4967 38.5333 20.9334C40.4733 17.8867 41.1767 13.7734 41.1767 11.2967C41.1767 7.63003 45.01 5.30337 48.0033 7.55004C53.8333 11.9234 60 19.2534 60 29.3567Z" stroke="#B6FFFA" stroke-width="4"/>
<path d="M66.6663 50L13.333 73.3333" stroke="#B6FFFA" stroke-width="4" stroke-linecap="round"/>
<path opacity="0.5" d="M13.333 50L29.9997 57.2934M66.6663 73.3334L48.333 65.3134M49.9997 33.3334C49.333 35.5567 46.3997 40 39.9997 40" stroke="#B6FFFA" stroke-width="4" stroke-linecap="round"/>
</svg>
