<svg width="81" height="80" viewBox="0 0 81 80" fill="none" xmlns="http://www.w3.org/2000/svg">
<path d="M7 53.3333C7 43.9066 7 39.1899 9.93 36.2633C12.8567 33.3333 17.5733 33.3333 27 33.3333H53.6667C63.0933 33.3333 67.81 33.3333 70.7367 36.2633C73.6667 39.1899 73.6667 43.9066 73.6667 53.3333C73.6667 62.7599 73.6667 67.4766 70.7367 70.4033C67.81 73.3333 63.0933 73.3333 53.6667 73.3333H27C17.5733 73.3333 12.8567 73.3333 9.93 70.4033C7 67.4766 7 62.7599 7 53.3333Z" stroke="#B6FFFA" stroke-width="4"/>
<path opacity="0.5" d="M40.3337 60C44.0156 60 47.0003 57.0152 47.0003 53.3333C47.0003 49.6514 44.0156 46.6666 40.3337 46.6666C36.6518 46.6666 33.667 49.6514 33.667 53.3333C33.667 57.0152 36.6518 60 40.3337 60Z" stroke="#B6FFFA" stroke-width="4"/>
<path opacity="0.5" d="M20.333 33.3333V26.6666C20.333 21.3623 22.4401 16.2752 26.1909 12.5245C29.9416 8.77376 35.0287 6.66663 40.333 6.66663C45.6373 6.66663 50.7244 8.77376 54.4751 12.5245C58.2259 16.2752 60.333 21.3623 60.333 26.6666V33.3333" stroke="#B6FFFA" stroke-width="4" stroke-linecap="round"/>
</svg>
