<svg width="80" height="80" viewBox="0 0 80 80" fill="none" xmlns="http://www.w3.org/2000/svg">
<path d="M7.94662 45.9767C6.45662 35.43 5.71329 30.16 8.87329 26.7434C12.0333 23.3334 17.66 23.3334 28.9066 23.3334H51.0933C62.34 23.3334 67.9666 23.3334 71.1266 26.7467C74.2833 30.16 73.54 35.43 72.0533 45.9767L70.6466 55.9767C69.48 64.2434 68.8966 68.38 65.9066 70.8567C62.9166 73.3334 58.5066 73.3334 49.6833 73.3334H30.3166C21.4966 73.3334 17.0833 73.3334 14.0933 70.8567C11.1033 68.38 10.52 64.2467 9.35329 55.9767L7.94662 45.9767Z" stroke="#B6FFFA" stroke-width="4"/>
<path opacity="0.5" d="M65.2065 23.3334C65.3855 22.3118 65.3388 21.2635 65.0696 20.2619C64.8004 19.2604 64.3152 18.3299 63.6481 17.5357C62.9811 16.7416 62.1483 16.1031 61.2082 15.6651C60.2682 15.227 59.2436 15 58.2065 15H21.7932C20.7561 15 19.7315 15.227 18.7915 15.6651C17.8514 16.1031 17.0186 16.7416 16.3516 17.5357C15.6845 18.3299 15.1994 19.2604 14.9301 20.2619C14.6609 21.2635 14.6142 22.3118 14.7932 23.3334M58.3332 15C58.4265 14.1334 58.4765 13.7034 58.4765 13.3467C58.4801 11.699 57.8734 10.1083 56.7735 8.88157C55.6735 7.6548 54.1582 6.87883 52.5199 6.70335C52.1665 6.66669 51.7332 6.66669 50.8665 6.66669H29.1332C28.2665 6.66669 27.8299 6.66669 27.4765 6.70335C25.8382 6.87883 24.3229 7.6548 23.2229 8.88157C22.123 10.1083 21.5163 11.699 21.5199 13.3467C21.5199 13.7034 21.5665 14.1367 21.6632 15" stroke="#B6FFFA" stroke-width="4"/>
<path opacity="0.5" d="M55 43.3334C57.7614 43.3334 60 41.0948 60 38.3334C60 35.572 57.7614 33.3334 55 33.3334C52.2386 33.3334 50 35.572 50 38.3334C50 41.0948 52.2386 43.3334 55 43.3334Z" stroke="#B6FFFA" stroke-width="4"/>
<path opacity="0.5" d="M66.6667 66.6667L57.0534 59.5033C53.9534 57.1967 49.3334 56.9667 45.9201 58.95L45.0334 59.4667C42.6601 60.8467 39.4334 60.6167 37.3867 58.92L24.5901 48.33C22.0367 46.2167 17.9401 46.1033 15.2234 48.07L10.8101 51.27" stroke="#B6FFFA" stroke-width="4" stroke-linecap="round"/>
</svg>
