<svg width="80" height="80" viewBox="0 0 80 80" fill="none" xmlns="http://www.w3.org/2000/svg">
<path opacity="0.5" d="M6.6665 40C6.6665 24.2867 6.6665 16.43 11.5465 11.5467C16.4332 6.66669 24.2865 6.66669 39.9998 6.66669C55.7132 6.66669 63.5698 6.66669 68.4498 11.5467C73.3332 16.4334 73.3332 24.2867 73.3332 40" stroke="#B6FFFA" stroke-width="4"/>
<path d="M6.6665 46.6667C6.6665 37.3333 6.6665 32.6667 8.48317 29.1C10.081 25.9641 12.6306 23.4145 15.7665 21.8167C19.3332 20 23.9998 20 33.3332 20H46.6665C55.9998 20 60.6665 20 64.2332 21.8167C67.3691 23.4145 69.9186 25.9641 71.5165 29.1C73.3332 32.6667 73.3332 37.3333 73.3332 46.6667C73.3332 56 73.3332 60.6667 71.5165 64.2333C69.9186 67.3692 67.3691 69.9188 64.2332 71.5167C60.6665 73.3333 55.9998 73.3333 46.6665 73.3333H33.3332C23.9998 73.3333 19.3332 73.3333 15.7665 71.5167C12.6306 69.9188 10.081 67.3692 8.48317 64.2333C6.6665 60.6667 6.6665 56 6.6665 46.6667Z" stroke="#B6FFFA" stroke-width="4"/>
<path d="M39.9998 36.6667V56.6667M39.9998 56.6667L48.3332 48.3334M39.9998 56.6667L31.6665 48.3334" stroke="#B6FFFA" stroke-width="4" stroke-linecap="round" stroke-linejoin="round"/>
</svg>
