<svg width="80" height="80" viewBox="0 0 80 80" fill="none" xmlns="http://www.w3.org/2000/svg">
<path d="M30 53.3334C32.8333 55.4334 36.2833 56.6667 40 56.6667C43.7167 56.6667 47.1667 55.4334 50 53.3334" stroke="#B6FFFA" stroke-width="4" stroke-linecap="round"/>
<path d="M49.9998 40C51.8408 40 53.3332 37.7614 53.3332 35C53.3332 32.2386 51.8408 30 49.9998 30C48.1589 30 46.6665 32.2386 46.6665 35C46.6665 37.7614 48.1589 40 49.9998 40Z" fill="#B6FFFA"/>
<path d="M29.9998 40C31.8408 40 33.3332 37.7614 33.3332 35C33.3332 32.2386 31.8408 30 29.9998 30C28.1589 30 26.6665 32.2386 26.6665 35C26.6665 37.7614 28.1589 40 29.9998 40Z" fill="#B6FFFA"/>
<path opacity="0.5" d="M49.9998 73.3334H39.9998C24.2865 73.3334 16.4298 73.3334 11.5465 68.45C6.6665 63.5734 6.6665 55.7134 6.6665 40C6.6665 24.2867 6.6665 16.43 11.5465 11.5467C16.4332 6.66669 24.2865 6.66669 39.9998 6.66669C55.7132 6.66669 63.5698 6.66669 68.4498 11.5467C73.3332 16.4334 73.3332 24.2867 73.3332 40V50M49.9998 73.3334C56.1882 73.3334 62.1231 70.875 66.499 66.4992C70.8748 62.1233 73.3332 56.1884 73.3332 50M49.9998 73.3334C49.9998 67.13 49.9998 64.0267 50.8165 61.5167C51.6293 59.0154 53.0225 56.742 54.8822 54.8824C56.7419 53.0227 59.0153 51.6295 61.5165 50.8167C64.0265 50 67.1298 50 73.3332 50" stroke="#B6FFFA" stroke-width="4"/>
</svg>
